<svg height="464pt" viewBox="0 0 464 464" width="464pt" xmlns="http://www.w3.org/2000/svg"><path d="m64 288h400v32h-400zm0 0" fill="#348fd9"/><path d="m464 288h-168c-17.671875 0-32 14.328125-32 32v-288c0-17.671875 14.328125-32 32-32h168zm0 0" fill="#5ac6d4"/><path d="m64 288h168c17.671875 0 32 14.328125 32 32v-288c0-17.671875-14.328125-32-32-32h-168zm0 0" fill="#60d1e0"/><path d="m448 432h-168l-24-16 24-16h168c8.835938 0 16 7.164062 16 16s-7.164062 16-16 16zm0 0" fill="#348fd9"/><path d="m440 432h-16v-56h-64v-16h72c4.417969 0 8 3.582031 8 8zm0 0" fill="#2a71ad"/><g fill="#3a9cc9"><path d="m296 160h88v16h-88zm0 0"/><path d="m400 160h32v16h-32zm0 0"/><path d="m296 40h136v16h-136zm0 0"/><path d="m296 80h88v16h-88zm0 0"/><path d="m400 80h32v16h-32zm0 0"/><path d="m296 120h88v16h-88zm0 0"/><path d="m400 120h32v16h-32zm0 0"/><path d="m296 200h88v16h-88zm0 0"/><path d="m400 200h32v16h-32zm0 0"/><path d="m296 240h88v16h-88zm0 0"/><path d="m400 240h32v16h-32zm0 0"/><path d="m96 40h136v16h-136zm0 0"/><path d="m96 80h88v16h-88zm0 0"/><path d="m200 80h32v16h-32zm0 0"/><path d="m96 120h88v16h-88zm0 0"/><path d="m200 120h32v16h-32zm0 0"/></g><path d="m224 288h16v32h-16zm0 0" fill="#3086cd"/><path d="m216 176h-152v112h168c2.703125.035156 5.390625.414062 8 1.128906v-89.128906c0-13.253906-10.746094-24-24-24zm0 0" fill="#3fb7c7"/><path d="m24 160h176c13.253906 0 24 10.746094 24 24v256c0 13.253906-10.746094 24-24 24h-176c-13.253906 0-24-10.746094-24-24v-256c0-13.253906 10.746094-24 24-24zm0 0" fill="#e94f4f"/><path d="m32 192h160v48h-160zm0 0" fill="#60d1e0"/><path d="m32 192h160v16h-160zm0 0" fill="#5ac6d4"/><path d="m32 272h32v32h-32zm0 0" fill="#ffb531"/><path d="m96 272h32v32h-32zm0 0" fill="#ffb531"/><path d="m160 272h32v32h-32zm0 0" fill="#ffb531"/><path d="m32 336h32v32h-32zm0 0" fill="#ffb531"/><path d="m96 336h32v32h-32zm0 0" fill="#ffb531"/><path d="m160 336h32v96h-32zm0 0" fill="#ffb531"/><path d="m32 400h32v32h-32zm0 0" fill="#ffb531"/><path d="m96 400h32v32h-32zm0 0" fill="#ffb531"/></svg>