<svg height="464pt" viewBox="0 0 464 464" width="464pt" xmlns="http://www.w3.org/2000/svg"><path d="m88 464h184v-180.566406c0-68.171875-55.261719-123.433594-123.433594-123.433594-54.855468 0-103.128906 36.207031-118.488281 88.871094l-30.078125 103.128906h40v64c0 26.507812 21.492188 48 48 48zm0 0" fill="#60d1e0"/><path d="m136.96875 294.96875c0 12.683594-10.285156 22.96875-22.96875 22.96875s-22.96875-10.285156-22.96875-22.96875c0-12.6875 10.285156-22.96875 22.96875-22.96875s22.96875 10.28125 22.96875 22.96875zm0 0" fill="#3a9cc9"/><path d="m49.046875 399.449219h-9.046875v-16h9.046875c11.871094.027343 23.261719-4.6875 31.632813-13.105469l11.320312 11.3125c-11.367188 11.429688-26.832031 17.835938-42.953125 17.792969zm0 0" fill="#3a9cc9"/><path d="m148.566406 160c-12.398437.011719-24.730468 1.902344-36.566406 5.601562v26.398438c0 22.089844 17.910156 40 40 40h56l-8 56 63.488281-49.375c-18.445312-47.386719-64.070312-78.601562-114.921875-78.625zm0 0" fill="#3fb7c7"/><path d="m360 0h-224c-22.089844 0-40 17.910156-40 40v136c0 22.089844 17.910156 40 40 40h56l-8 56 72-56h104c22.089844 0 40-17.910156 40-40v-136c0-22.089844-17.910156-40-40-40zm0 0" fill="#e94f4f"/><path d="m264 176h176c13.253906 0 24 10.746094 24 24v240c0 13.253906-10.746094 24-24 24h-176c-13.253906 0-24-10.746094-24-24v-240c0-13.253906 10.746094-24 24-24zm0 0" fill="#348fd9"/><path d="m272 240h160v64h-160zm0 0" fill="#60d1e0"/><path d="m272 240h160v16h-160zm0 0" fill="#5ac6d4"/><g fill="#e94f4f"><path d="m272 336h32v32h-32zm0 0"/><path d="m336 336h32v32h-32zm0 0"/><path d="m400 336h32v96h-32zm0 0"/><path d="m272 400h32v32h-32zm0 0"/><path d="m336 400h32v32h-32zm0 0"/></g><path d="m392 264h16v16h-16zm0 0" fill="#3a9cc9"/><path d="m360 264h16v16h-16zm0 0" fill="#3a9cc9"/><path d="m328 264h16v16h-16zm0 0" fill="#3a9cc9"/><path d="m368 208h-96v-136l16 8 16-8 16 8 16-8 16 8 16-8zm0 0" fill="#60d1e0"/><path d="m296 104h48v16h-48zm0 0" fill="#3fb7c7"/><path d="m296 136h48v16h-48zm0 0" fill="#3fb7c7"/><path d="m296 168h48v16h-48zm0 0" fill="#3fb7c7"/><path d="m224 80v-1.535156c-.019531-16.816406-13.648438-30.445313-30.464844-30.464844h-1.535156v-16h-16v16h-1.535156c-15.355469.039062-28.285156 11.5-30.160156 26.742188-1.875 15.242187 7.886718 29.496093 22.773437 33.257812l29.96875 7.488281c7.121094 1.746094 11.808594 8.539063 10.914063 15.816407-.898438 7.273437-7.09375 12.730468-14.425782 12.695312h-19.070312c-7.984375-.007812-14.457032-6.480469-14.464844-14.464844v-1.535156h-16v1.535156c.019531 16.816406 13.648438 30.445313 30.464844 30.464844h1.535156v16h16v-16h1.535156c15.355469-.039062 28.285156-11.5 30.160156-26.742188 1.875-15.242187-7.886718-29.496093-22.773437-33.257812l-29.96875-7.488281c-7.121094-1.746094-11.808594-8.539063-10.914063-15.816407.898438-7.273437 7.09375-12.730468 14.425782-12.695312h19.070312c7.984375.007812 14.457032 6.480469 14.464844 14.464844v1.535156zm0 0" fill="#ffb531"/><path d="m384 176h-16v-80l16-8zm0 0" fill="#cf3a3a"/><path d="m368 176h16v32h-16zm0 0" fill="#2a71ad"/></svg>