<svg height="464pt" viewBox="-40 0 464 464" width="464pt" xmlns="http://www.w3.org/2000/svg"><path d="m272 0h80c17.671875 0 32 14.328125 32 32v400c0 17.671875-14.328125 32-32 32h-32" fill="#348fd9"/><path d="m320 464h-288c-17.671875 0-32-14.328125-32-32v-400c0-17.671875 14.328125-32 32-32h240l80 80v352c0 17.671875-14.328125 32-32 32zm0 0" fill="#60d1e0"/><path d="m5.753906 450.246094c5.964844 8.613281 15.769532 13.75 26.246094 13.753906h288c17.671875 0 32-14.328125 32-32v-328zm0 0" fill="#5ac6d4"/><path d="m352 80h-48c-17.671875 0-32-14.328125-32-32v-48zm0 0" fill="#9fe4ed"/><g fill="#3a9cc9"><path d="m32 24h16v16h-16zm0 0"/><path d="m64 24h16v16h-16zm0 0"/><path d="m96 24h16v16h-16zm0 0"/><path d="m32 56h216v16h-216zm0 0"/><path d="m320 152v-16h-288v16h184v32h-184v16h184v24h-184v16h184v24h-184v16h184v24h-184v16h184v24h-184v16h184v24h-48v16h152v-16h-88v-24h88v-16h-88v-24h88v-16h-88v-24h88v-16h-88v-24h88v-16h-88v-24h88v-16h-88v-32zm0 0"/><path d="m120 96h64v16h-64zm0 0"/><path d="m200 96h32v16h-32zm0 0"/><path d="m168 416h152v16h-152zm0 0"/></g></svg>