<svg height="464pt" viewBox="0 0 464 464" width="464pt" xmlns="http://www.w3.org/2000/svg"><path d="m160 32h304v400h-304zm0 0" fill="#e94f4f"/><path d="m384 400h-224v-400h304v320zm0 0" fill="#60d1e0"/><g fill="#3fb7c7"><path d="m384 143.59375v16.40625h16v-16.40625c14.523438-2.074219 24.972656-15.027344 23.917969-29.664062-1.050781-14.632813-13.246094-25.957032-27.917969-25.929688h-8c-6.628906 0-12-5.371094-12-12s5.371094-12 12-12h8c6.628906 0 12 5.371094 12 12v4h16v-4c-.039062-13.878906-10.257812-25.628906-24-27.59375v-16.40625h-16v16.40625c-14.523438 2.074219-24.972656 15.027344-23.917969 29.664062 1.050781 14.632813 13.246094 25.957032 27.917969 25.929688h8c6.628906 0 12 5.371094 12 12s-5.371094 12-12 12h-8c-6.628906 0-12-5.371094-12-12v-4h-16v4c.039062 13.878906 10.257812 25.628906 24 27.59375zm0 0"/><path d="m192 72h152v16h-152zm0 0"/><path d="m192 32h152v16h-152zm0 0"/><path d="m248 112h96v16h-96zm0 0"/><path d="m248 152h96v16h-96zm0 0"/><path d="m248 192h184v16h-184zm0 0"/><path d="m248 232h184v16h-184zm0 0"/><path d="m248 272h184v16h-184zm0 0"/><path d="m248 312h112v16h-112zm0 0"/><path d="m248 352h112v16h-112zm0 0"/></g><path d="m384 400 80-80h-80zm0 0" fill="#9fe4ed"/><path d="m224 128h-64v272h88v-248c0-13.253906-10.746094-24-24-24zm0 0" fill="#3fb7c7"/><path d="m24 112h176c13.253906 0 24 10.746094 24 24v304c0 13.253906-10.746094 24-24 24h-176c-13.253906 0-24-10.746094-24-24v-304c0-13.253906 10.746094-24 24-24zm0 0" fill="#348fd9"/><path d="m32 176h160v64h-160zm0 0" fill="#60d1e0"/><path d="m32 176h160v16h-160zm0 0" fill="#5ac6d4"/><path d="m32 264h32v32h-32zm0 0" fill="#ffb531"/><path d="m96 264h32v32h-32zm0 0" fill="#ffb531"/><path d="m160 264h32v32h-32zm0 0" fill="#ffb531"/><path d="m32 328h32v32h-32zm0 0" fill="#ffb531"/><path d="m96 328h32v32h-32zm0 0" fill="#ffb531"/><path d="m160 328h32v96h-32zm0 0" fill="#ffb531"/><path d="m32 392h32v32h-32zm0 0" fill="#ffb531"/><path d="m96 392h32v32h-32zm0 0" fill="#ffb531"/><path d="m152 200h16v16h-16zm0 0" fill="#3a9cc9"/><path d="m120 200h16v16h-16zm0 0" fill="#3a9cc9"/><path d="m88 200h16v16h-16zm0 0" fill="#3a9cc9"/><path d="m128 136h-96v-136l16 8 16-8 16 8 16-8 16 8 16-8zm0 0" fill="#60d1e0"/><path d="m56 32h48v16h-48zm0 0" fill="#3fb7c7"/><path d="m56 64h48v16h-48zm0 0" fill="#3fb7c7"/><path d="m56 96h48v16h-48zm0 0" fill="#3fb7c7"/><path d="m224 400h24v32h-24zm0 0" fill="#cf3a3a"/></svg>