<svg height="464pt" viewBox="-48 0 464 464" width="464pt" xmlns="http://www.w3.org/2000/svg"><path d="m32 40h304c17.671875 0 32 14.328125 32 32v360c0 17.671875-14.328125 32-32 32h-304c-17.671875 0-32-14.328125-32-32v-360c0-17.671875 14.328125-32 32-32zm0 0" fill="#e94f4f"/><path d="m72 464h264c17.671875 0 32-14.328125 32-32v-264zm0 0" fill="#e04646"/><path d="m40 80h288v344h-288zm0 0" fill="#3fb7c7"/><path d="m272 424h-232v-344h288v288zm0 0" fill="#60d1e0"/><path d="m84 424h188l56-56v-188zm0 0" fill="#5ac6d4"/><path d="m272 368v56l56-56zm0 0" fill="#9fe4ed"/><path d="m216 40v-8c0-17.671875-14.328125-32-32-32s-32 14.328125-32 32v8h-40l-16 64h176l-16-64zm0 0" fill="#ffb531"/><g fill="#3fb7c7"><path d="m296 144h-224c-4.417969 0-8 3.582031-8 8v168c0 4.417969 3.582031 8 8 8h128v40h48v-16h-32v-24h72v16h16v-192c0-4.417969-3.582031-8-8-8zm-8 48h-72v-32h72zm-88 56v24h-120v-24zm-120-16v-24h120v24zm136 16h72v24h-72zm0-16v-24h72v24zm-16-72v32h-120v-32zm-120 152v-24h120v24zm136 0v-24h72v24zm0 0"/><path d="m64 384h16v16h-16zm0 0"/><path d="m96 384h48v16h-48zm0 0"/></g><path d="m256 40h-40v-8c-.011719-4.527344-.992188-9.003906-2.878906-13.121094l-85.121094 85.121094h144zm0 0" fill="#ffa912"/></svg>