<svg height="472pt" viewBox="-3 0 471 472" width="472pt" xmlns="http://www.w3.org/2000/svg"><path d="m293.5 456-21-56h-80l-21 56h-27v16h176v-16zm0 0" fill="#e0e0de"/><path d="m40.5 80c-13.253906 0-24 10.746094-24 24v248h432v-248c0-13.253906-10.746094-24-24-24zm0 0" fill="#348fd9"/><path d="m16.5 352v24c0 13.253906 10.746094 24 24 24h384c13.253906 0 24-10.746094 24-24v-24zm0 0" fill="#e0e0de"/><path d="m236.058594 352h-215.117188c-2.878906 4.84375-4.414062 10.367188-4.441406 16v8c0 13.253906 10.746094 24 24 24h200v-32c-.027344-5.632812-1.5625-11.15625-4.441406-16zm0 0" fill="#d6d6d4"/><path d="m392.5 16h-320c-13.253906 0-24 10.746094-24 24v312h368v-312c0-13.253906-10.746094-24-24-24zm0 0" fill="#60d1e0"/><path d="m392.5 16h-40c-17.671875 0-32 14.328125-32 32v48c0 17.671875 14.328125 32 32 32h8l-8 48 64-48v-88c0-13.253906-10.746094-24-24-24zm0 0" fill="#5ac6d4"/><path d="m48.5 336h368v16h-368zm0 0" fill="#5ac6d4"/><g fill="#3a9cc9"><path d="m72.5 40h16v16h-16zm0 0"/><path d="m104.5 40h16v16h-16zm0 0"/><path d="m136.5 40h16v16h-16zm0 0"/><path d="m72.5 72h320v16h-320zm0 0"/></g><path d="m80.5 112h304v224h-304zm0 0" fill="#7eb457"/><path d="m184.5 112h48c17.671875 0 32 14.328125 32 32h-48c-17.671875 0-32-14.328125-32-32zm0 0" fill="#803f37"/><path d="m216.5 144c-5.632812-.027344-11.15625-1.5625-16-4.441406v36.441406c0 17.671875 14.328125 32 32 32s32-14.328125 32-32v-32zm0 0" fill="#fec093"/><path d="m248.5 144v32c-.027344 14.558594-9.898438 27.253906-24 30.871094 9.578125 2.632812 19.835938.609375 27.699219-5.457032 7.863281-6.070312 12.417969-15.480468 12.300781-25.414062v-32zm0 0" fill="#feb784"/><path d="m272.5 208h-80c-17.671875 0-32 14.328125-32 32v96h144v-96c0-17.671875-14.328125-32-32-32zm0 0" fill="#348fd9"/><path d="m160.5 330.566406v5.433594h144v-96c-.019531-7.914062-2.992188-15.539062-8.335938-21.375-38.976562 67.445312-101.574218 102.054688-135.664062 111.941406zm0 0" fill="#3086cd"/><path d="m184.5 248h16v88h-16zm0 0" fill="#2a71ad"/><path d="m264.5 248h16v88h-16zm0 0" fill="#2a71ad"/><path d="m281.5 424-9-24h-80l-9 24zm0 0" fill="#d6d6d4"/><path d="m32.5 320h32l64-48-8 48h72c17.671875 0 32 14.328125 32 32v48c0 17.671875-14.328125 32-32 32h-160c-17.671875 0-32-14.328125-32-32v-48c0-17.671875 14.328125-32 32-32zm0 0" fill="#ffb531"/><path d="m32.5 352h104v16h-104zm0 0" fill="#e8770c"/><path d="m152.5 352h40v16h-40zm0 0" fill="#e8770c"/><path d="m32.5 384h160v16h-160zm0 0" fill="#e8770c"/><path d="m432.5 336v-256h-16v272h32v-16zm0 0" fill="#3086cd"/><path d="m432.5 81.472656v46.527344h16v-24c-.019531-10.140625-6.429688-19.171875-16-22.527344zm0 0" fill="#3086cd"/><path d="m320.5 96c.027344 5.632812 1.5625 11.15625 4.441406 16h59.558594v40l32-24v-48h-96zm0 0" fill="#5ac6d4"/><path d="m432.5 128v-46.527344c-2.5625-.949218-5.269531-1.445312-8-1.472656h-8v48zm0 0" fill="#3086cd"/><path d="m324.941406 112c5.664063 9.875 16.171875 15.976562 27.558594 16h8l-8 48 32-24v-40zm0 0" fill="#69a340"/><path d="m432.5 112h-32l-64 48 8-48h-8c-17.671875 0-32-14.328125-32-32v-48c0-17.671875 14.328125-32 32-32h96c17.671875 0 32 14.328125 32 32v48c0 17.671875-14.328125 32-32 32zm0 0" fill="#e94f4f"/><path d="m328.5 32h32v16h-32zm0 0" fill="#cf3a3a"/><path d="m376.5 32h64v16h-64zm0 0" fill="#cf3a3a"/><path d="m328.5 64h112v16h-112zm0 0" fill="#cf3a3a"/></svg>