<svg height="464pt" viewBox="0 0 464 464" width="464pt" xmlns="http://www.w3.org/2000/svg"><path d="m96 192h176v272h-176zm0 0" fill="#ffa912"/><path d="m96 192v272h-96v-272zm0 0" fill="#ffb531"/><path d="m72 400c0 13.253906-10.746094 24-24 24s-24-10.746094-24-24 10.746094-24 24-24 24 10.746094 24 24zm0 0" fill="#e8770c"/><path d="m64 224v128h-32v-128zm0 0" fill="#e0e0de"/><path d="m192 104h176v272h-176zm0 0" fill="#e04646"/><path d="m208 152c0 8.835938 7.164062 16 16 16s16-7.164062 16-16c0 8.835938 7.164062 16 16 16s16-7.164062 16-16c0 8.835938 7.164062 16 16 16s16-7.164062 16-16c0 8.835938 7.164062 16 16 16s16-7.164062 16-16v-48h-128zm0 0" fill="#cf3a3a"/><path d="m192 104v272h-96v-272zm0 0" fill="#e94f4f"/><path d="m168 312c0 13.253906-10.746094 24-24 24s-24-10.746094-24-24 10.746094-24 24-24 24 10.746094 24 24zm0 0" fill="#cf3a3a"/><path d="m160 136v128h-32v-128zm0 0" fill="#e0e0de"/><path d="m288 192v272h-96v-272zm0 0" fill="#348fd9"/><path d="m264 400c0 13.253906-10.746094 24-24 24s-24-10.746094-24-24 10.746094-24 24-24 24 10.746094 24 24zm0 0" fill="#2a71ad"/><path d="m256 224v128h-32v-128zm0 0" fill="#e0e0de"/><path d="m288 192h176v272h-176zm0 0" fill="#3086cd"/><path d="m312 280h48v16h-48zm0 0" fill="#e0e0de"/><path d="m312 360h48v16h-48zm0 0" fill="#e0e0de"/><path d="m376 0h-128l-48.078125 54.953125c-5.101563 5.824219-7.914063 13.304687-7.921875 21.046875v60c0 8.835938 7.164062 16 16 16s16-7.164062 16-16c0 8.835938 7.164062 16 16 16s16-7.164062 16-16c0 8.835938 7.164062 16 16 16s16-7.164062 16-16c0 8.835938 7.164062 16 16 16s16-7.164062 16-16v-72c0-8.835938 7.164062-16 16-16s16 7.164062 16 16v24c0 17.671875 14.328125 32 32 32v-80zm0 0" fill="#fec9a3"/><g fill="#feb784"><path d="m224 144c-4.417969 0-8-3.582031-8-8v-48c0-4.417969 3.582031-8 8-8s8 3.582031 8 8v48c0 4.417969-3.582031 8-8 8zm0 0"/><path d="m256 144c-4.417969 0-8-3.582031-8-8v-48c0-4.417969 3.582031-8 8-8s8 3.582031 8 8v48c0 4.417969-3.582031 8-8 8zm0 0"/><path d="m288 144c-4.417969 0-8-3.582031-8-8v-48c0-4.417969 3.582031-8 8-8s8 3.582031 8 8v48c0 4.417969-3.582031 8-8 8zm0 0"/></g></svg>