<svg height="464pt" viewBox="0 0 464.00043 464" width="464pt" xmlns="http://www.w3.org/2000/svg"><path d="m0 464h336v-464h-259.960938c-2.585937 0-5.066406 1.027344-6.894531 2.855469l-66.289062 66.289062c-1.828125 1.828125-2.855469 4.308594-2.855469 6.894531zm0 0" fill="#60d1e0"/><path d="m0 400v64h336v-400zm0 0" fill="#5ac6d4"/><path d="m72 0v72h-72v16h88v-88zm0 0" fill="#5ac6d4"/><path d="m272 440h-208c-4.417969 0-8-3.582031-8-8 0-13.253906-10.746094-24-24-24-4.417969 0-8-3.582031-8-8v-336h16v328.800781c15.699219 3.230469 27.96875 15.5 31.199219 31.199219h193.601562c3.230469-15.699219 15.5-27.96875 31.199219-31.199219v-321.601562c-15.699219-3.230469-27.96875-15.5-31.199219-31.199219h-200.800781v-16h208c4.417969 0 8 3.582031 8 8 0 13.253906 10.746094 24 24 24 4.417969 0 8 3.582031 8 8v336c0 4.417969-3.582031 8-8 8-13.253906 0-24 10.746094-24 24 0 4.417969-3.582031 8-8 8zm0 0" fill="#3a9cc9"/><path d="m146.382812 199.488281-11.976562-21.054687-22.40625 9.199218 26.070312-75.632812 34.394532 11.855469zm0 0" fill="#e94f4f"/><path d="m186.070312 199.488281 11.976563-21.054687 22.417969 9.199218-26.082032-75.632812-34.382812 11.855469zm0 0" fill="#e94f4f"/><path d="m183.382812 74.855469c6.242188-2.96875 13.675782-1.6875 18.5625 3.199219 4.886719 4.886718 6.167969 12.320312 3.199219 18.5625 6.507813 2.3125 10.855469 8.476562 10.855469 15.382812 0 6.910156-4.347656 13.070312-10.855469 15.382812 2.96875 6.242188 1.6875 13.675782-3.199219 18.5625-4.886718 4.886719-12.320312 6.167969-18.5625 3.199219-2.3125 6.507813-8.472656 10.855469-15.382812 10.855469s-13.070312-4.347656-15.382812-10.855469c-6.242188 2.96875-13.675782 1.6875-18.5625-3.199219-4.886719-4.886718-6.167969-12.320312-3.199219-18.5625-6.507813-2.3125-10.855469-8.472656-10.855469-15.382812 0-6.90625 4.347656-13.070312 10.855469-15.382812-2.96875-6.242188-1.6875-13.675782 3.199219-18.5625 4.886718-4.886719 12.320312-6.167969 18.5625-3.199219 2.3125-6.507813 8.472656-10.855469 15.382812-10.855469s13.070312 4.347656 15.382812 10.855469zm0 0" fill="#ffb531"/><g fill="#3a9cc9"><path d="m296 24h16v16h-16zm0 0"/><path d="m296 424h16v16h-16zm0 0"/><path d="m24 424h16v16h-16zm0 0"/><path d="m168 408c-13.253906 0-24-10.746094-24-24s10.746094-24 24-24 24 10.746094 24 24-10.746094 24-24 24zm0 0"/><path d="m64 232h32v16h-32zm0 0"/><path d="m112 232h48v16h-48zm0 0"/><path d="m64 264h96v16h-96zm0 0"/><path d="m64 296h64v16h-64zm0 0"/><path d="m144 296h16v16h-16zm0 0"/><path d="m64 328h96v16h-96zm0 0"/><path d="m240 328h32v16h-32zm0 0"/><path d="m176 328h48v16h-48zm0 0"/><path d="m176 296h96v16h-96zm0 0"/><path d="m208 264h64v16h-64zm0 0"/><path d="m176 264h16v16h-16zm0 0"/><path d="m176 232h96v16h-96zm0 0"/><path d="m80 376h48v16h-48zm0 0"/></g><path d="m72 72v-72l-72 72zm0 0" fill="#9fe4ed"/><path d="m448 424v-120c0-44.183594-35.816406-80-80-80l24-48h-112l24 48c-44.183594 0-80 35.816406-80 80v120l-11.023438 11.023438c-3.183593 3.183593-4.972656 7.5-4.976562 12-.011719 4.496093 1.761719 8.8125 4.933594 11.996093 3.175781 3.183594 7.484375 4.976563 11.976562 4.980469h222.179688c4.492187-.003906 8.800781-1.792969 11.972656-4.976562 3.171875-3.183594 4.949219-7.496094 4.9375-11.992188-.003906-4.5-1.792969-8.816406-4.976562-12zm0 0" fill="#ffb531"/><path d="m459.023438 435.023438-11.023438-11.023438v-120c0-24.902344-11.625-48.375-31.433594-63.464844-34.367187 90.375-95.230468 168.265625-174.613281 223.464844h205.136719c6.855468-.027344 13.019531-4.171875 15.632812-10.511719 2.609375-6.339843 1.152344-13.625-3.699218-18.472656zm0 0" fill="#ffa912"/><path d="m348 328h-24c-6.628906 0-12-5.371094-12-12s5.371094-12 12-12h44v-16h-24v-16h-16v16h-4c-15.464844 0-28 12.535156-28 28s12.535156 28 28 28h24c6.628906 0 12 5.371094 12 12s-5.371094 12-12 12h-44v16h24v16h16v-16h4c15.464844 0 28-12.535156 28-28s-12.535156-28-28-28zm0 0" fill="#f98500"/></svg>