<svg height="464pt" viewBox="0 0 464 464" width="464pt" xmlns="http://www.w3.org/2000/svg"><path d="m96 0c-17.671875 0-32 14.328125-32 32v208c0 17.671875 14.328125 32 32 32h8v-272zm0 0" fill="#348fd9"/><path d="m432 0h-8v272h8c17.671875 0 32-14.328125 32-32v-208c0-17.671875-14.328125-32-32-32zm0 0" fill="#348fd9"/><path d="m104 0h320v272h-320zm0 0" fill="#60d1e0"/><path d="m424 64-208 208h208zm0 0" fill="#5ac6d4"/><path d="m392 56h-256c-4.417969 0-8 3.582031-8 8v104h144v16h-24v16h24v16h-24v16h144c4.417969 0 8-3.582031 8-8v-160c0-4.417969-3.582031-8-8-8zm-8 32h-40v-16h40zm-40 80h40v16h-40zm0-16v-16h40v16zm-56-48h40v16h-40zm-16 16h-128v-16h128zm16-32v-16h40v16zm40 48v16h-40v-16zm16-16v-16h40v16zm-72-48v16h-128v-16zm-128 80v-16h128v16zm144 16h40v16h-40zm0 32h40v16h-40zm64 16h-8v-16h40v16zm0 0" fill="#3fb7c7"/><path d="m192 24h16v16h-16zm0 0" fill="#3a9cc9"/><path d="m160 24h16v16h-16zm0 0" fill="#3a9cc9"/><path d="m128 24h16v16h-16zm0 0" fill="#3a9cc9"/><path d="m216 208h-112v64h136v-40c0-13.253906-10.746094-24-24-24zm0 0" fill="#5ac6d4"/><path d="m424 62.664062v209.335938h8c17.671875 0 32-14.328125 32-32v-208c-.039062-2.757812-.433594-5.496094-1.175781-8.152344zm0 0" fill="#3086cd"/><path d="m24 192h176c13.253906 0 24 10.746094 24 24v224c0 13.253906-10.746094 24-24 24h-176c-13.253906 0-24-10.746094-24-24v-224c0-13.253906 10.746094-24 24-24zm0 0" fill="#e94f4f"/><path d="m32 240h160v64h-160zm0 0" fill="#60d1e0"/><path d="m32 240h160v16h-160zm0 0" fill="#5ac6d4"/><g fill="#ffb531"><path d="m32 336h32v32h-32zm0 0"/><path d="m96 336h32v32h-32zm0 0"/><path d="m32 400h32v32h-32zm0 0"/><path d="m96 400h32v32h-32zm0 0"/><path d="m160 336h32v32h-32zm0 0"/><path d="m160 400h32v32h-32zm0 0"/></g><path d="m152 264h16v16h-16zm0 0" fill="#3a9cc9"/><path d="m120 264h16v16h-16zm0 0" fill="#3a9cc9"/><path d="m88 264h16v16h-16zm0 0" fill="#3a9cc9"/><path d="m256 304h208v96h-208zm0 0" fill="#7eb457"/><path d="m344 400h120v-96h-24zm0 0" fill="#77ad50"/><path d="m256 432h208v32h-208zm0 0" fill="#69a340"/><path d="m256 400h208v32h-208zm0 0" fill="#69a340"/><path d="m256 424h208v16h-208zm0 0" fill="#5f943a"/><path d="m408 352c0 26.507812-21.492188 48-48 48s-48-21.492188-48-48 21.492188-48 48-48 48 21.492188 48 48zm0 0" fill="#88c25e"/><path d="m344 304h32v160h-32zm0 0" fill="#348fd9"/><path d="m344 400h32v64h-32zm0 0" fill="#3086cd"/><path d="m280 344h16v16h-16zm0 0" fill="#88c25e"/><path d="m424 344h16v16h-16zm0 0" fill="#88c25e"/></svg>