<svg height="464pt" viewBox="-56 0 464 464" width="464pt" xmlns="http://www.w3.org/2000/svg"><path d="m232 200h-80c-14.636719.019531-29.144531 2.730469-42.800781 8-6.773438-19.160156-24.878907-31.976562-45.199219-32v62.59375c-12.992188 14.035156-22.4375 30.976562-27.550781 49.40625h-36.449219v64h36.449219c5.101562 18.429688 14.550781 35.367188 27.550781 49.390625v62.609375h64v-26.398438c7.898438 1.601563 15.941406 2.402344 24 2.398438h80c8.058594.003906 16.101562-.796875 24-2.398438v26.398438h64v-62.609375c32.4375-34.957031 41.066406-85.820313 21.96875-129.519531-19.09375-43.699219-62.277344-71.925782-109.96875-71.871094zm0 0" fill="#db6ea2"/><path d="m64 402.664062v61.335938h64v-26.398438c7.898438 1.601563 15.941406 2.402344 24 2.398438h80c8.058594.003906 16.101562-.796875 24-2.398438v26.398438h64v-62.609375c42.742188-45.949219 42.664062-117.136719-.183594-162.992187-63.34375 115.921874-182.214844 152.664062-255.816406 164.265624zm0 0" fill="#d46198"/><g fill="#bf4585"><path d="m96 320c-13.253906 0-24-10.746094-24-24s10.746094-24 24-24 24 10.746094 24 24-10.746094 24-24 24zm0-32c-4.417969 0-8 3.582031-8 8s3.582031 8 8 8 8-3.582031 8-8-3.582031-8-8-8zm0 0"/><path d="m152 240h80v16h-80zm0 0"/><path d="m324 360c-15.464844 0-28-12.535156-28-28v-12h16v12c0 6.628906 5.371094 12 12 12s12-5.371094 12-12v-12h16v12c0 15.464844-12.535156 28-28 28zm0 0"/></g><path d="m184 41h16v215h-16zm0 0" fill="#69a340"/><path d="m192 48h-8c-26.507812 0-48-21.492188-48-48h8c26.507812 0 48 21.492188 48 48zm0 0" fill="#7eb457"/><path d="m112 64h16c35.347656 0 64 28.652344 64 64h-16c-35.347656 0-64-28.652344-64-64zm0 0" fill="#7eb457"/><path d="m248 0h-8c-26.507812 0-48 21.492188-48 48h8c26.507812 0 48-21.492188 48-48zm0 0" fill="#69a340"/><path d="m208 128h-16c0-35.347656 28.652344-64 64-64h16c0 35.347656-28.652344 64-64 64zm0 0" fill="#69a340"/><path d="m112 152h16c35.347656 0 64 28.652344 64 64h-16c-35.347656 0-64-28.652344-64-64zm0 0" fill="#7eb457"/><path d="m208 216h-16c0-35.347656 28.652344-64 64-64h16c0 35.347656-28.652344 64-64 64zm0 0" fill="#69a340"/></svg>