<svg height="472pt" viewBox="-8 0 472 472" width="472pt" xmlns="http://www.w3.org/2000/svg"><path d="m277.601562 456-21.601562-72h-80l-21.601562 72h-26.398438v16h176v-16zm0 0" fill="#e0e0de"/><path d="m24 64c-13.253906 0-24 10.746094-24 24v248h432v-248c0-13.253906-10.746094-24-24-24zm0 0" fill="#348fd9"/><path d="m0 336v24c0 13.253906 10.746094 24 24 24h384c13.253906 0 24-10.746094 24-24v-24zm0 0" fill="#e0e0de"/><path d="m304 0h-232c-13.253906 0-24 10.746094-24 24v312h336v-256zm0 0" fill="#60d1e0"/><path d="m368 64-272 272 288 8v-264zm0 0" fill="#5ac6d4"/><g fill="#3a9cc9"><path d="m72 24h16v16h-16zm0 0"/><path d="m104 24h16v16h-16zm0 0"/><path d="m136 24h16v16h-16zm0 0"/></g><path d="m240 88 16-40h-80l16 40c-35.347656 0-64 28.652344-64 64v72l-6.054688 6.054688c-6.367187 6.367187-9.945312 15-9.945312 24-.003906 18.75 15.195312 33.949218 33.945312 33.945312h140.109376c18.75.003906 33.949218-15.195312 33.945312-33.945312 0-9-3.578125-17.632813-9.945312-24l-6.054688-6.054688v-72c0-35.347656-28.652344-64-64-64zm0 0" fill="#ffb531"/><path d="m310.054688 230.054688-6.054688-6.054688v-72c.011719-18.835938-8.296875-36.714844-22.703125-48.847656-32.105469 95.40625-105.746094 153.769531-149.929687 181.441406 4.542968 2.214844 9.523437 3.378906 14.578124 3.40625h140.109376c13.730468 0 26.105468-8.273438 31.359374-20.953125 5.25-12.683594 2.347657-27.28125-7.359374-36.992187zm0 0" fill="#ffa912"/><path d="m224 160h-16c-4.417969 0-8-3.582031-8-8s3.582031-8 8-8h32v-16h-16v-16h-16v16c-13.253906 0-24 10.746094-24 24s10.746094 24 24 24h16c4.417969 0 8 3.582031 8 8s-3.582031 8-8 8h-32v16h16v16h16v-16c13.253906 0 24-10.746094 24-24s-10.746094-24-24-24zm0 0" fill="#f98500"/><path d="m309.3125 240.871094c-17.75-11.828125-40.875-11.828125-58.625 0l-10.6875 7.128906h-44c-11.046875 0-20 8.953125-20 20s8.953125 20 20 20h-20l-64.566406-35.871094c-4.738282-2.632812-10.359375-3.152344-15.496094-1.441406l-2.722656.90625c-6.929688 2.308594-11.964844 8.324219-13.015625 15.554688-1.050781 7.230468 2.0625 14.433593 8.046875 18.621093l71.753906 50.230469h160v-88zm0 0" fill="#fec9a3"/><path d="m456 336h-72v-104h72" fill="#e94f4f"/><path d="m384 296h72v40h-72zm0 0" fill="#e04646"/><path d="m248 296h-52c-4.417969 0-8-3.582031-8-8s3.582031-8 8-8h52c4.417969 0 8 3.582031 8 8s-3.582031 8-8 8zm0 0" fill="#feb784"/><path d="m320 232h64v104h-64zm0 0" fill="#e0e0de"/><path d="m344 296h16v16h-16zm0 0" fill="#b0b0ae"/><path d="m265.601562 416-9.601562-32h-80l-9.601562 32zm0 0" fill="#d6d6d4"/><path d="m432 352h-240l-16-16h256zm0 0" fill="#d6d6d4"/><path d="m344 96h40v-16l-64-64v56c0 13.253906 10.746094 24 24 24zm0 0" fill="#5ac6d4"/><path d="m328 80h56l-80-80v56c0 13.253906 10.746094 24 24 24zm0 0" fill="#9fe4ed"/></svg>