<svg height="472pt" viewBox="0 -3 472 471" width="472pt" xmlns="http://www.w3.org/2000/svg"><path d="m32 .5h320v464h-320zm0 0" fill="#3086cd"/><path d="m320 464.5h-320v-464h248l72 72zm0 0" fill="#60d1e0"/><path d="m320 192.5-272 272h272zm0 0" fill="#5ac6d4"/><path d="m248 72.5v-72l72 72zm0 0" fill="#9fe4ed"/><path d="m175.382812 43.355469c6.242188-2.96875 13.675782-1.6875 18.5625 3.199219 4.886719 4.886718 6.167969 12.320312 3.199219 18.5625 6.507813 2.3125 10.855469 8.472656 10.855469 15.382812s-4.347656 13.070312-10.855469 15.382812c2.96875 6.242188 1.6875 13.675782-3.199219 18.5625-4.886718 4.886719-12.320312 6.167969-18.5625 3.199219-2.3125 6.507813-8.472656 10.855469-15.382812 10.855469s-13.070312-4.347656-15.382812-10.855469c-6.242188 2.96875-13.675782 1.6875-18.5625-3.199219-4.886719-4.886718-6.167969-12.320312-3.199219-18.5625-6.507813-2.3125-10.855469-8.472656-10.855469-15.382812s4.347656-13.070312 10.855469-15.382812c-2.96875-6.242188-1.6875-13.675782 3.199219-18.5625 4.886718-4.886719 12.320312-6.167969 18.5625-3.199219 2.3125-6.507813 8.472656-10.855469 15.382812-10.855469s13.070312 4.347656 15.382812 10.855469zm0 0" fill="#ffb531"/><path d="m232 192.5h-144l8-16-8-16h144l-8 16zm0 0" fill="#e94f4f"/><g fill="#3fb7c7"><path d="m32 280.5h48v16h-48zm0 0"/><path d="m96 280.5h192v16h-192zm0 0"/><path d="m240 216.5h48v16h-48zm0 0"/><path d="m32 216.5h192v16h-192zm0 0"/><path d="m32 312.5h256v16h-256zm0 0"/><path d="m32 248.5h256v16h-256zm0 0"/></g><path d="m144 416.5h-40c-2.769531 0-5.34375-1.433594-6.800781-3.789062-1.460938-2.355469-1.59375-5.300782-.359375-7.777344 3.339844-6.316406 5.484375-13.195313 6.328125-20.289063-7.535157 1.472657-18.503907 16.464844-24 27.441407-1.96875 3.953124-6.777344 5.566406-10.730469 3.59375-3.957031-1.96875-5.566406-6.773438-3.597656-10.730469 3.648437-7.386719 7.832031-20.570313 5.710937-26.785157-.285156-1.089843-1.035156-1.996093-2.054687-2.480468-3.390625-1.640625-18.015625 13.894531-29.335938 36.410156l-14.304687-7.203125c6.464843-12.878906 29.214843-54.101563 50.664062-43.589844 4.847657 2.351563 8.527344 6.582031 10.183594 11.710938.324219.941406.59375 1.90625.800781 2.878906 4.796875-4.421875 10.980469-7.035156 17.496094-7.390625 5.101562-.230469 9.933594 2.292969 12.664062 6.609375 3.320313 8.183594 3.09375 17.378906-.625 25.390625h27.960938zm0 0" fill="#3a9cc9"/><path d="m210.664062 424.5c-6.246093.695312-12.417968-1.820312-16.398437-6.679688-2.761719-4.328124-3.082031-9.777343-.851563-14.398437 4.800782-11.59375 16.179688-19.085937 28.722657-18.921875h6.496093c2.796876-8.175781 4.839844-16.589844 6.109376-25.136719l15.84375 2.273438c-1.136719 7.730469-2.820313 15.371093-5.035157 22.863281h37.113281v16h-43.128906c-6.144531 12.960938-15.351562 24-28.871094 24zm-2.007812-16.089844c.667969.066406 1.335938.09375 2.007812.089844 3.777344 0 7.34375-3.105469 10.527344-8-5.304687.167969-10.101562 3.195312-12.535156 7.910156zm0 0" fill="#3a9cc9"/><path d="m264 72.5h56v16h-56zm0 0" fill="#5ac6d4"/><path d="m408 408.5-24-48h48zm0 0" fill="#ffb531"/><path d="m408 56.5c-13.253906 0-24 10.746094-24 24v280h48v-280c0-13.253906-10.746094-24-24-24zm0 0" fill="#803f37"/><path d="m408 56.5c-4.226562.023438-8.367188 1.171875-12 3.328125 7.40625 4.25 11.980469 12.132813 12 20.671875v280h24v-280c0-13.253906-10.746094-24-24-24zm0 0" fill="#773730"/><path d="m384 240.5v-32h48v32zm0 0" fill="#ffb531"/><path d="m408 240.5v-32h24v32zm0 0" fill="#ffa912"/><path d="m472 208.5h-16v-104c0-4.417969-3.582031-8-8-8h-64v-16h64c13.253906 0 24 10.746094 24 24zm0 0" fill="#ffb531"/><path d="m432 360.5h-16l-16 32 8 16zm0 0" fill="#ffa912"/></svg>