<svg height="480pt" viewBox="0 -8 480 480" width="480pt" xmlns="http://www.w3.org/2000/svg"><path d="m93.875 79.632812c-9.78125.003907-19.164062-3.882812-26.074219-10.808593l-1.277343-1.28125 11.3125-11.3125 1.277343 1.28125c6.347657 6.378906 16.070313 7.953125 24.105469 3.90625 30.945312-15.414063 66.851562-17.476563 99.359375-5.714844 24.273437 8.816406 50.878906 8.816406 75.152344 0 32.515625-11.757813 68.429687-9.695313 99.382812 5.714844 8.035157 4.046875 17.761719 2.472656 24.105469-3.90625l1.28125-1.28125 11.308594 11.3125-1.277344 1.28125c-11.21875 11.234375-28.375 14.015625-42.570312 6.902343-27.019532-13.449218-58.371094-15.25-86.757813-4.992187-27.8125 10.097656-58.285156 10.097656-86.097656 0-28.386719-10.261719-59.738281-8.457031-86.757813 4.992187-5.113281 2.5625-10.753906 3.898438-16.472656 3.90625zm0 0" fill="#ffa912"/><path d="m192.179688 288.121094h96c26.507812 0 48 21.488281 48 48h-192c0-26.511719 21.488281-48 48-48zm0 0" fill="#ffb531"/><path d="m288.179688 288.121094h-32c26.507812 0 48 21.488281 48 48h32c0-26.511719-21.492188-48-48-48zm0 0" fill="#ffa912"/><g fill="#ffb531"><path d="m264.179688 24.121094c.054687-11.042969-7.433594-20.699219-18.144532-23.394532-10.707031-2.695312-21.875 2.265626-27.054687 12.015626-5.179688 9.753906-3.03125 21.785156 5.199219 29.144531v246.234375h32v-246.234375c5.078124-4.511719 7.988281-10.972657 8-17.765625zm0 0"/><path d="m8.179688 184.121094h160c0 26.507812-21.492188 48-48 48h-64c-26.511719 0-48-21.492188-48-48zm0 0"/><path d="m312.179688 184.121094h160c0 26.507812-21.492188 48-48 48h-64c-26.511719 0-48-21.492188-48-48zm0 0"/></g><path d="m440.179688 184.121094c0 26.507812-21.492188 48-48 48h32c26.507812 0 48-21.492188 48-48zm0 0" fill="#ffa912"/><path d="m94.683594 67.472656c-1.574219-1.992187-3.96875-3.152344-6.503906-3.152344-2.539063 0-4.933594 1.160157-6.503907 3.152344l-80 112c-1.796875 2.316406-2.179687 5.429688-1 8.113282 1.179688 2.683593 3.730469 4.507812 6.652344 4.753906s5.742187-1.125 7.355469-3.570313l73.496094-102.882812 73.496093 102.882812c1.609375 2.445313 4.433594 3.816407 7.351563 3.570313 2.921875-.246094 5.476562-2.070313 6.652344-4.753906 1.179687-2.683594.796874-5.796876-.996094-8.113282zm0 0" fill="#d6d6d4"/><path d="m478.683594 179.472656-80-112c-1.574219-1.992187-3.96875-3.152344-6.503906-3.152344-2.539063 0-4.933594 1.160157-6.503907 3.152344l-80 112c-1.796875 2.316406-2.179687 5.429688-1 8.113282 1.179688 2.683593 3.730469 4.507812 6.652344 4.753906s5.742187-1.125 7.355469-3.570313l73.496094-102.882812 73.496093 102.882812c2.628907 3.398438 7.476563 4.109375 10.976563 1.609375 3.496094-2.5 4.394531-7.316406 2.03125-10.90625zm0 0" fill="#d6d6d4"/><path d="m136.179688 184.121094c0 26.507812-21.492188 48-48 48h32c26.507812 0 48-21.492188 48-48zm0 0" fill="#ffa912"/><path d="m279.730469 400.121094h-224c-10.074219-20.144532-10.074219-43.855469 0-64h224c-10.074219 20.144531-10.074219 43.855468 0 64zm0 0" fill="#803f37"/><path d="m94.808594 339.855469 1.976562-3.734375h-17.742187c-8.921875 20.398437-8.921875 43.597656 0 64h17.71875l-1.886719-3.578125c-8.875-17.847657-8.898438-38.816407-.066406-56.6875zm0 0" fill="#ffb531"/><path d="m254.28125 340 2.152344-3.878906h-17.855469c-8.917969 20.398437-8.917969 43.597656 0 64h17.808594l-1.992188-3.578125c-8.851562-17.796875-8.890625-38.707031-.113281-56.542969zm0 0" fill="#ffb531"/><path d="m279.730469 336.121094c-10.074219 20.144531-10.074219 43.855468 0 64h152c-10.074219-20.144532-10.074219-43.855469 0-64zm0 0" fill="#e0e0de"/><path d="m111.730469 360.121094h96v16h-96zm0 0" fill="#f98500"/><path d="m424.632812 360.121094h-152c-.589843 5.316406-.589843 10.683594 0 16h152c-.589843-5.316406-.589843-10.683594 0-16zm0 0" fill="#d6d6d4"/><path d="m279.730469 464.121094h-224c-10.074219-20.144532-10.074219-43.855469 0-64h224c-10.074219 20.144531-10.074219 43.855468 0 64zm0 0" fill="#773730"/><path d="m94.808594 403.855469 1.976562-3.734375h-17.742187c-8.921875 20.398437-8.921875 43.597656 0 64h17.71875l-1.886719-3.578125c-8.875-17.847657-8.898438-38.816407-.066406-56.6875zm0 0" fill="#ffb531"/><path d="m254.28125 404 2.152344-3.878906h-17.855469c-8.917969 20.398437-8.917969 43.597656 0 64h17.808594l-1.992188-3.578125c-8.851562-17.796875-8.890625-38.707031-.113281-56.542969zm0 0" fill="#ffb531"/><path d="m279.730469 400.121094c-10.074219 20.144531-10.074219 43.855468 0 64h152c-10.074219-20.144532-10.074219-43.855469 0-64zm0 0" fill="#d6d6d4"/><path d="m111.730469 424.121094h96v16h-96zm0 0" fill="#f98500"/><path d="m424.632812 424.121094h-152c-.589843 5.316406-.589843 10.683594 0 16h152c-.589843-5.316406-.589843-10.683594 0-16zm0 0" fill="#c7c7c5"/></svg>