<svg height="472pt" viewBox="-4 0 472 472" width="472pt" xmlns="http://www.w3.org/2000/svg"><path d="m64 0h288c17.671875 0 32 14.328125 32 32v208c0 17.671875-14.328125 32-32 32h-288c-17.671875 0-32-14.328125-32-32v-208c0-17.671875 14.328125-32 32-32zm0 0" fill="#348fd9"/><path d="m112 272h240c17.671875 0 32-14.328125 32-32v-208c.011719-8.488281-3.363281-16.632812-9.375-22.625zm0 0" fill="#3086cd"/><path d="m64 24h16v16h-16zm0 0" fill="#2a71ad"/><path d="m96 24h16v16h-16zm0 0" fill="#2a71ad"/><path d="m128 24h16v16h-16zm0 0" fill="#2a71ad"/><path d="m352 72v-16h-288v16h184v16h-184v16h184v16h-184v16h184v16h-184v16h184v16h-184v16h184v32h104v-16h-88v-16h88v-16h-88v-16h88v-16h-88v-16h88v-16h-88v-16h88v-16h-88v-16zm0 0" fill="#2a71ad"/><path d="m448 400h-168l-24 16 24 16h168c8.835938 0 16-7.164062 16-16s-7.164062-16-16-16zm0 0" fill="#803f37"/><path d="m448 416h-168l-12-8-12 8 24 16h168c5.730469.035156 11.03125-3.015625 13.886719-7.984375 2.851562-4.964844 2.8125-11.085937-.101563-16.015625-2.839844 4.933594-8.09375 7.984375-13.785156 8zm0 0" fill="#773730"/><path d="m416 472h-56v-16h56c4.417969 0 8-3.582031 8-8v-48h16v48c0 13.253906-10.746094 24-24 24zm0 0" fill="#ffb531"/><path d="m352 400h16v32h-16zm0 0" fill="#662c26"/><path d="m144 64h288c17.671875 0 32 14.328125 32 32v208c0 17.671875-14.328125 32-32 32h-288c-17.671875 0-32-14.328125-32-32v-208c0-17.671875 14.328125-32 32-32zm0 0" fill="#60d1e0"/><path d="m216 144h-104v160c0 17.671875 14.328125 32 32 32h96v-168c0-13.253906-10.746094-24-24-24zm0 0" fill="#5ac6d4"/><path d="m192 336h240c17.671875 0 32-14.328125 32-32v-208c.011719-8.488281-3.363281-16.632812-9.375-22.625zm0 0" fill="#5ac6d4"/><path d="m144 88h16v16h-16zm0 0" fill="#3fb7c7"/><path d="m176 88h16v16h-16zm0 0" fill="#3fb7c7"/><path d="m208 88h16v16h-16zm0 0" fill="#3fb7c7"/><path d="m432 136v-16h-288v16h184v16h-184v16h184v16h-184v16h184v16h-184v16h184v16h-184v16h184v32h104v-16h-88v-16h88v-16h-88v-16h88v-16h-88v-16h88v-16h-88v-16h88v-16h-88v-16zm0 0" fill="#3fb7c7"/><path d="m24 128h176c13.253906 0 24 10.746094 24 24v288c0 13.253906-10.746094 24-24 24h-176c-13.253906 0-24-10.746094-24-24v-288c0-13.253906 10.746094-24 24-24zm0 0" fill="#e94f4f"/><g fill="#ffb531"><path d="m32 336h32v32h-32zm0 0"/><path d="m96 336h32v32h-32zm0 0"/><path d="m32 272h32v32h-32zm0 0"/><path d="m96 272h32v32h-32zm0 0"/><path d="m160 272h32v32h-32zm0 0"/><path d="m32 400h32v32h-32zm0 0"/><path d="m96 400h32v32h-32zm0 0"/><path d="m160 336h32v96h-32zm0 0"/></g><path d="m32 176h160v64h-160zm0 0" fill="#60d1e0"/><path d="m32 176h160v16h-160zm0 0" fill="#5ac6d4"/><path d="m152 200h16v16h-16zm0 0" fill="#3a9cc9"/><path d="m120 200h16v16h-16zm0 0" fill="#3a9cc9"/><path d="m88 200h16v16h-16zm0 0" fill="#3a9cc9"/></svg>