<svg height="464pt" viewBox="0 0 464 464.008" width="464pt" xmlns="http://www.w3.org/2000/svg"><path d="m64.003906 0h304v400h-304zm0 0" fill="#348fd9"/><path d="m32.003906 0h304v400h-304zm0 0" fill="#4db7e5"/><path d="m304.003906 400h-303.99999975v-400h231.99999975l72 72zm0 0" fill="#60d1e0"/><path d="m232.003906 72v-72l72 72zm0 0" fill="#9fe4ed"/><path d="m304.003906 160-240 240h240zm0 0" fill="#5ac6d4"/><path d="m232.003906 176v112h-160v-112l80-48zm0 0" fill="#4db7e5"/><path d="m192.003906 112v32l32 16v-48zm0 0" fill="#e04646"/><path d="m128.003906 224h48v64h-48zm0 0" fill="#348fd9"/><path d="m48.003906 208 104-64 104 64v-32l-104-64-104 64zm0 0" fill="#e94f4f"/><path d="m448.003906 424v-120c0-35.347656-28.652344-64-64-64l24-48h-112l24 48c-35.347656 0-64 28.652344-64 64v120l-11.023437 11.023438c-3.183594 3.183593-4.972657 7.5-4.976563 12-.011718 4.496093 1.769532 8.816406 4.945313 12 3.171875 3.183593 7.484375 4.972656 11.984375 4.976562h190.175781c9.347656-.019531 16.914063-7.609375 16.894531-16.960938-.003906-4.5-1.792968-8.816406-4.976562-12zm0 0" fill="#ffb531"/><path d="m459.027344 435.023438-11.023438-11.023438v-120c.011719-15.246094-5.449218-29.992188-15.382812-41.558594-33.617188 87.292969-98.945313 158.679688-182.921875 199.886719 2.246093 1.089844 4.707031 1.664063 7.199219 1.679687h190.175781c4.5 0 8.808593-1.789062 11.984375-4.972656 3.175781-3.183594 4.957031-7.5 4.945312-11.996094 0-4.507812-1.789062-8.828124-4.976562-12.015624zm0 0" fill="#ffa912"/><path d="m364.003906 336h-24c-6.628906 0-12-5.371094-12-12s5.371094-12 12-12h44v-16h-24v-16h-16v16h-4c-15.464844 0-28 12.535156-28 28s12.535156 28 28 28h24c6.628906 0 12 5.371094 12 12s-5.371094 12-12 12h-44v16h24v16h16v-16h4c15.464844 0 28-12.535156 28-28s-12.535156-28-28-28zm0 0" fill="#f98500"/><g fill="#4db7e5"><path d="m104.003906 344h128v16h-128zm0 0"/><path d="m40.003906 32h104v16h-104zm0 0"/><path d="m40.003906 64h168v16h-168zm0 0"/><path d="m40.003906 312h192v16h-192zm0 0"/><path d="m40.003906 344h48v16h-48zm0 0"/><path d="m160.003906 32h48v16h-48zm0 0"/></g><path d="m248.003906 72h56v16h-56zm0 0" fill="#5ac6d4"/></svg>