<svg height="472pt" viewBox="-76 0 472 472" width="472pt" xmlns="http://www.w3.org/2000/svg"><path d="m0 96h256v304h-256zm0 0" fill="#348fd9"/><path d="m0 432c0 17.671875 14.328125 32 32 32h192c17.671875 0 32-14.328125 32-32v-32h-256zm0 0" fill="#e0e0de"/><path d="m256 80c0-17.671875-14.328125-32-32-32h-192c-17.671875 0-32 14.328125-32 32v16h256zm0 0" fill="#e0e0de"/><path d="m120 424h16v16h-16zm0 0" fill="#b0b0ae"/><path d="m320 472v-159.640625c0-19.375-7.03125-38.097656-19.792969-52.679687l-44.207031-51.679688v264zm0 0" fill="#fec9a3"/><path d="m40 64h176v304h-176zm0 0" fill="#7eb457"/><path d="m40 32h176v304h-176zm0 0" fill="#69a340"/><path d="m40 0h176v304h-176zm0 0" fill="#7eb457"/><path d="m40 232v72h176v-248zm0 0" fill="#77ad50"/><path d="m168 272h-80c0-8.835938-7.164062-16-16-16v-208c8.835938 0 16-7.164062 16-16h80c0 8.835938 7.164062 16 16 16v208c-8.835938 0-16 7.164062-16 16zm0 0" fill="#69a340"/><g fill="#7eb457"><path d="m184 152c0-22.089844-25.070312-40-56-40s-56 17.910156-56 40 25.070312 40 56 40 56-17.910156 56-40zm0 0"/><path d="m120 64h16v16h-16zm0 0"/><path d="m120 224h16v16h-16zm0 0"/></g><path d="m216 96v272h-152v16h168v-288zm0 0" fill="#3086cd"/><path d="m224 472v-16c-19.3125-24.140625-21.925781-57.628906-6.585938-84.472656l6.585938-11.527344-68-68c-11.046875-11.042969-11.046875-28.957031 0-40 11.042969-11.046875 28.957031-11.046875 40 0l84 84v136zm0 0" fill="#fec9a3"/><path d="m232 96v-46.871094c-2.609375-.714844-5.296875-1.09375-8-1.128906h-8v48zm0 0" fill="#d6d6d4"/></svg>