<svg height="464pt" viewBox="0 0 464 464" width="464pt" xmlns="http://www.w3.org/2000/svg"><path d="m160 96v-80c0-8.835938 7.164062-16 16-16h90.398438c3.636718 0 7.164062 1.234375 10 3.503906l35.601562 28.496094h152v272c0 17.671875-14.328125 32-32 32h-40" fill="#f98500"/><path d="m184 24h16v16h-16zm0 0" fill="#964138"/><path d="m216 24h16v16h-16zm0 0" fill="#964138"/><path d="m248 24h16v16h-16zm0 0" fill="#964138"/><path d="m400 304h32v-240h-312v32h280zm0 0" fill="#60d1e0"/><path d="m80 336v-240h320v208c0 17.671875 14.328125 32 32 32s32-14.328125 32-32c0 17.671875-14.328125 32-32 32zm0 0" fill="#ffb531"/><path d="m24 128h176c13.253906 0 24 10.746094 24 24v288c0 13.253906-10.746094 24-24 24h-176c-13.253906 0-24-10.746094-24-24v-288c0-13.253906 10.746094-24 24-24zm0 0" fill="#e94f4f"/><path d="m32 176h160v64h-160zm0 0" fill="#60d1e0"/><path d="m32 176h160v16h-160zm0 0" fill="#5ac6d4"/><g fill="#ffb531"><path d="m32 272h32v32h-32zm0 0"/><path d="m96 272h32v32h-32zm0 0"/><path d="m160 272h32v32h-32zm0 0"/><path d="m32 336h32v32h-32zm0 0"/><path d="m96 336h32v32h-32zm0 0"/><path d="m160 336h32v96h-32zm0 0"/><path d="m32 400h32v32h-32zm0 0"/><path d="m96 400h32v32h-32zm0 0"/></g><path d="m152 200h16v16h-16zm0 0" fill="#3a9cc9"/><path d="m120 200h16v16h-16zm0 0" fill="#3a9cc9"/><path d="m88 200h16v16h-16zm0 0" fill="#3a9cc9"/><path d="m256 440 16 24 16-24v-128h-32zm0 0" fill="#803f37"/><path d="m288 208v104h-32v-104c0-8.835938 7.164062-16 16-16s16 7.164062 16 16zm0 0" fill="#803f37"/><path d="m328 312h-16v-72c0-4.417969-3.582031-8-8-8h-48v-16h48c13.253906 0 24 10.746094 24 24zm0 0" fill="#e0e0de"/><path d="m256 304h32v16h-32zm0 0" fill="#e0e0de"/></svg>