<svg height="463pt" viewBox="-19 0 463 463.216" width="463pt" xmlns="http://www.w3.org/2000/svg"><path d="m290.507812 400h-196.800781c-16.347656 0-29.597656-13.253906-29.597656-29.601562-.011719-7.925782 3.160156-15.523438 8.796875-21.09375l78.066406-76.800782c10.960938-10.8125 25.738282-16.875 41.136719-16.878906 15.375-.011719 30.136719 6.023438 41.101563 16.800781l78.066406 76.796875c5.667968 5.585938 8.851562 13.21875 8.832031 21.175782 0 16.347656-13.253906 29.601562-29.601563 29.601562zm0 0" fill="#b0564c"/><path d="m184.109375 41h16v215h-16zm0 0" fill="#69a340"/><path d="m192.109375 48h-8c-26.511719 0-48-21.492188-48-48h8c26.507813 0 48 21.492188 48 48zm0 0" fill="#7eb457"/><path d="m112.109375 64h16c35.34375 0 64 28.652344 64 64h-16c-35.347656 0-64-28.652344-64-64zm0 0" fill="#7eb457"/><path d="m248.109375 0h-8c-26.511719 0-48 21.492188-48 48h8c26.507813 0 48-21.492188 48-48zm0 0" fill="#69a340"/><path d="m208.109375 128h-16c0-35.347656 28.652344-64 64-64h16c0 35.347656-28.65625 64-64 64zm0 0" fill="#69a340"/><path d="m112.109375 152h16c35.34375 0 64 28.652344 64 64h-16c-35.347656 0-64-28.652344-64-64zm0 0" fill="#7eb457"/><path d="m208.109375 216h-16c0-35.347656 28.652344-64 64-64h16c0 35.347656-28.65625 64-64 64zm0 0" fill="#69a340"/><path d="m152.109375 312h16v16h-16zm0 0" fill="#964138"/><path d="m200.109375 288h16v16h-16zm0 0" fill="#964138"/><path d="m207.484375 350.105469-2.039063 1.109375h-61.335937c-13.257813 0-24 10.746094-24 24 0 13.257812 10.742187 24 24 24h-16l-90.96875-41.664063c-8.09375-3.707031-17.519531-3.039062-25.011719 1.769531-7.492187 4.808594-12.019531 13.097657-12.019531 22v1.742188c0 9.90625 5.597656 18.957031 14.453125 23.386719l93.273438 46.640625c13.332031 6.65625 28.03125 10.117187 42.9375 10.109375h169.335937v-112c-34.808594-19.878907-77.4375-20.296875-112.625-1.09375zm0 0" fill="#fec9a3"/><path d="m232.109375 407.199219h-88c-4.417969 0-8-3.582031-8-8s3.582031-8 8-8h88c4.417969 0 8 3.582031 8 8s-3.582031 8-8 8zm0 0" fill="#feb784"/><path d="m320.109375 351.214844h104v112h-104zm0 0" fill="#348fd9"/><path d="m320.109375 408h104v55.214844h-104zm0 0" fill="#3086cd"/><path d="m376.109375 423.214844c0 8.835937-7.164063 16-16 16-8.839844 0-16-7.164063-16-16 0-8.835938 7.160156-16 16-16 8.835937 0 16 7.164062 16 16zm0 0" fill="#2a71ad"/></svg>