<svg height="464pt" viewBox="0 0 464.00005 464" width="464pt" xmlns="http://www.w3.org/2000/svg"><path d="m432 112v216h-272v-208l136-96zm0 0" fill="#e0e0de"/><path d="m248 184h96v144h-96zm0 0" fill="#803f37"/><path d="m248 184h96v16h-96zm0 0" fill="#773730"/><path d="m240 424v-104c0-44.183594-35.816406-80-80-80l24-48h-112l24 48c-44.183594 0-80 35.816406-80 80v104l-11.023438 11.023438c-3.1875 3.183593-4.976562 7.503906-4.976562 12.007812-.0117188 4.496094 1.765625 8.808594 4.9375 11.992188 3.171875 3.179687 7.480469 4.972656 11.972656 4.976562h222.179688c4.492187-.003906 8.800781-1.796875 11.972656-4.976562 3.171875-3.183594 4.949219-7.496094 4.9375-11.992188-.003906-4.5-1.792969-8.816406-4.976562-12zm0 0" fill="#ffb531"/><path d="m251.023438 435.023438-11.023438-11.023438v-104c.007812-24.289062-11.050781-47.257812-30.039062-62.398438-32.433594 88.453126-96.234376 161.90625-179.28125 206.398438h208.410156c6.855468-.027344 13.019531-4.171875 15.632812-10.511719 2.609375-6.339843 1.152344-13.625-3.699218-18.472656zm0 0" fill="#ffa912"/><path d="m140 344h-24c-6.628906 0-12-5.371094-12-12s5.371094-12 12-12h44v-16h-24v-16h-16v16h-4c-15.464844 0-28 12.535156-28 28s12.535156 28 28 28h24c6.628906 0 12 5.371094 12 12s-5.371094 12-12 12h-44v16h24v16h16v-16h4c15.464844 0 28-12.535156 28-28s-12.535156-28-28-28zm0 0" fill="#f98500"/><g fill="#60d1e0"><path d="m280 416h16v16h-16zm0 0"/><path d="m312 416h16v16h-16zm0 0"/><path d="m344 416h16v16h-16zm0 0"/><path d="m344 384h16v16h-16zm0 0"/><path d="m344 352h16v16h-16zm0 0"/></g><path d="m304 248h16v32h-16zm0 0" fill="#e0e0de"/><path d="m296 24-136 96v48l136-96 136 88v-48zm0 0" fill="#d6d6d4"/><path d="m376 8v64l56 40v-104zm0 0" fill="#e04646"/><path d="m464 160-168-112-168 112v-48l168-112 168 112zm0 0" fill="#e94f4f"/></svg>