<svg height="464pt" viewBox="0 0 464 464" width="464pt" xmlns="http://www.w3.org/2000/svg"><path d="m0 112h112v352h-112zm0 0" fill="#e94f4f"/><path d="m80 392c0 13.253906-10.746094 24-24 24s-24-10.746094-24-24 10.746094-24 24-24 24 10.746094 24 24zm0 0" fill="#cf3a3a"/><path d="m32 152h48v176h-48zm0 0" fill="#ffb531"/><path d="m112 112h352v352h-352zm0 0" fill="#3086cd"/><path d="m112 112h112v352h-112zm0 0" fill="#348fd9"/><path d="m192 392c0 13.253906-10.746094 24-24 24s-24-10.746094-24-24 10.746094-24 24-24 24 10.746094 24 24zm0 0" fill="#2a71ad"/><path d="m144 152h48v176h-48zm0 0" fill="#ffb531"/><path d="m248 240h64v16h-64zm0 0" fill="#e0e0de"/><path d="m248 320h64v16h-64zm0 0" fill="#e0e0de"/><path d="m272 112v48c0 17.671875 14.328125 32 32 32h32l-8 40 64-40h56c5.632812-.027344 11.15625-1.5625 16-4.441406v-75.558594zm0 0" fill="#2a71ad"/><path d="m288 176h32l-8 40 64-40h56c17.671875 0 32-14.328125 32-32v-112c0-17.671875-14.328125-32-32-32h-144c-17.671875 0-32 14.328125-32 32v112c0 17.671875 14.328125 32 32 32zm0 0" fill="#60d1e0"/><path d="m400 72v-6.03125c-.011719-14.335938-11.632812-25.957031-25.96875-25.96875h-6.03125v-16h-16v16h-6.03125c-13.175781-.082031-24.324219 9.71875-25.933594 22.796875s6.832032 25.289063 19.636719 28.402344l36.800781 9.191406c4.882813 1.21875 8.09375 5.886719 7.484375 10.882813-.613281 4.996093-4.851562 8.753906-9.886719 8.757812h-28.101562c-2.648438 0-5.1875-1.054688-7.058594-2.933594-1.871094-1.875-2.917968-4.417968-2.910156-7.066406v-6.03125h-16v6.03125c.011719 14.335938 11.632812 25.957031 25.96875 25.96875h6.03125v16h16v-16h6.03125c13.175781.082031 24.324219-9.71875 25.933594-22.796875s-6.832032-25.289063-19.636719-28.402344l-36.800781-9.191406c-4.882813-1.21875-8.09375-5.886719-7.484375-10.882813.613281-4.996093 4.851562-8.753906 9.886719-8.757812h28.0625c2.65625-.007812 5.203124 1.042969 7.082031 2.917969 1.878906 1.878906 2.933593 4.425781 2.925781 7.082031v6.03125zm0 0" fill="#e94f4f"/></svg>