<svg height="464pt" viewBox="0 -31 464 463" width="464pt" xmlns="http://www.w3.org/2000/svg"><path d="m48 64.5h368c17.671875 0 32 14.328125 32 32v264c0 13.253906-10.746094 24-24 24h-384c-13.253906 0-24-10.746094-24-24v-264c0-17.671875 14.328125-32 32-32zm0 0" fill="#348fd9"/><path d="m408 64.5-64-64h-256c-17.671875 0-32 14.328125-32 32v344h352zm0 0" fill="#60d1e0"/><path d="m407.992188 104.507812-271.992188 271.992188h272zm0 0" fill="#5ac6d4"/><path d="m87.992188 24.5h16v16h-16zm0 0" fill="#3fb7c7"/><path d="m119.992188 24.5h16v16h-16zm0 0" fill="#3fb7c7"/><path d="m151.992188 24.5h16v16h-16zm0 0" fill="#3fb7c7"/><path d="m360 64.5h48l-64-64v48c0 8.835938 7.164062 16 16 16zm0 0" fill="#9fe4ed"/><path d="m88 56.5h232v16h-232zm0 0" fill="#3fb7c7"/><path d="m408 64.5h-48c0 8.835938 7.164062 16 16 16h32zm0 0" fill="#5ac6d4"/><path d="m294.222656 138.277344-62.222656 62.222656 62.222656 62.222656c34.367188-34.363281 34.367188-90.082031 0-124.445312zm0 0" fill="#7eb457"/><path d="m169.777344 262.722656c34.363281 34.367188 90.082031 34.367188 124.445312 0l-62.222656-62.222656zm0 0" fill="#348fd9"/><path d="m232 200.5 62.222656-62.222656c-25.167968-25.167969-63.015625-32.695313-95.898437-19.074219-32.882813 13.617187-54.324219 45.703125-54.324219 81.296875zm0 0" fill="#e94f4f"/><path d="m144 200.5c-.03125 23.34375 9.246094 45.742188 25.777344 62.222656l62.222656-62.222656zm0 0" fill="#ffb531"/><g fill="#3fb7c7"><path d="m88 104.5h56v16h-56zm0 0"/><path d="m88 136.5h16v16h-16zm0 0"/><path d="m120 136.5h16v16h-16zm0 0"/><path d="m328 104.5h48v16h-48zm0 0"/><path d="m328 136.5h48v16h-48zm0 0"/><path d="m336 248.5h48v16h-48zm0 0"/><path d="m336 280.5h32v16h-32zm0 0"/><path d="m88 248.5h48v16h-48zm0 0"/><path d="m88 280.5h56v16h-56zm0 0"/><path d="m240 312.5h56v16h-56zm0 0"/></g><path d="m56 336.5h352v40h-352zm0 0" fill="#5ac6d4"/><path d="m280 360.5c-5.121094 5.121094-12.070312 8-19.3125 8h-57.375c-7.242188 0-14.191406-2.878906-19.3125-8s-12.070312-8-19.3125-8h-164.6875v24c0 13.253906 10.746094 24 24 24h416c13.253906 0 24-10.746094 24-24v-24h-164.6875c-7.242188 0-14.191406 2.878906-19.3125 8zm0 0" fill="#e0e0de"/><path d="m424 352.5v24c0 13.253906-10.746094 24-24 24h40c13.253906 0 24-10.746094 24-24v-24zm0 0" fill="#d6d6d4"/><path d="m424 336.5v-270.871094c-2.609375-.714844-5.296875-1.09375-8-1.128906h-8v288h40v-16zm0 0" fill="#3086cd"/><path d="m16 336.5h40v16h-40zm0 0" fill="#3086cd"/></svg>