<svg height="464pt" viewBox="0 0 464 464" width="464pt" xmlns="http://www.w3.org/2000/svg"><path d="m432 0h-80v432h80c17.671875 0 32-14.328125 32-32v-368c0-17.671875-14.328125-32-32-32zm0 0" fill="#348fd9"/><path d="m352 0h-208c-17.671875 0-32 14.328125-32 32v368c0 17.671875 14.328125 32 32 32h256c17.671875 0 32-14.328125 32-32v-320zm0 0" fill="#60d1e0"/><path d="m184 432h216c17.671875 0 32-14.328125 32-32v-216zm0 0" fill="#5ac6d4"/><path d="m400 96h32v-16l-64-64v48c0 17.671875 14.328125 32 32 32zm0 0" fill="#5ac6d4"/><path d="m432 80h-48c-17.671875 0-32-14.328125-32-32v-48zm0 0" fill="#9fe4ed"/><g fill="#3fb7c7"><path d="m184 80h-16c-4.417969 0-8-3.582031-8-8s3.582031-8 8-8h32v-16h-16v-16h-16v16c-13.253906 0-24 10.746094-24 24s10.746094 24 24 24h16c4.417969 0 8 3.582031 8 8s-3.582031 8-8 8h-32v16h16v16h16v-16c13.253906 0 24-10.746094 24-24s-10.746094-24-24-24zm0 0"/><path d="m400 176v-16h-256v16h168v24h-120v16h120v24h-88v16h88v24h-88v16h88v16h-72v16h72v24h-64v16h152v-16h-72v-24h72v-16h-72v-16h72v-16h-72v-24h72v-16h-72v-24h72v-16h-72v-24zm0 0"/><path d="m248 384h152v16h-152zm0 0"/><path d="m232 48h96v16h-96zm0 0"/><path d="m232 80h48v16h-48zm0 0"/><path d="m296 80h32v16h-32zm0 0"/><path d="m232 112h96v16h-96zm0 0"/></g><path d="m18.902344 328h186.195312c10.4375 0 18.902344 8.464844 18.902344 18.902344v98.195312c0 10.4375-8.464844 18.902344-18.902344 18.902344h-186.195312c-10.4375 0-18.902344-8.464844-18.902344-18.902344v-98.195312c0-10.4375 8.464844-18.902344 18.902344-18.902344zm0 0" fill="#ffb531"/><path d="m112 208c-48.601562 0-88 39.398438-88 88v32h32v-32c0-30.929688 25.070312-56 56-56s56 25.070312 56 56v32h32v-32c0-48.601562-39.398438-88-88-88zm0 0" fill="#e0e0de"/><path d="m9.183594 461.230469c2.925781 1.796875 6.289062 2.753906 9.71875 2.769531h186.195312c3.429688-.015625 6.792969-.972656 9.71875-2.769531-17.023437-17.167969-56.535156-29.230469-102.816406-29.230469s-85.792969 12.0625-102.816406 29.230469zm0 0" fill="#ffa912"/><path d="m214.816406 330.769531c-2.925781-1.796875-6.289062-2.753906-9.71875-2.769531h-186.195312c-3.429688.015625-6.792969.972656-9.71875 2.769531 17.023437 17.167969 56.535156 29.230469 102.816406 29.230469s85.792969-12.0625 102.816406-29.230469zm0 0" fill="#ffcb73"/><path d="m24 304h32v24h-32zm0 0" fill="#d6d6d4"/><path d="m168 304h32v24h-32zm0 0" fill="#d6d6d4"/><path d="m128 392c.035156-7.773438-5.523438-14.449219-13.175781-15.820312-7.648438-1.375-15.179688 2.953124-17.851563 10.253906-2.667968 7.300781.296875 15.464844 7.027344 19.351562v18.214844h16v-18.214844c4.933594-2.839844 7.984375-8.09375 8-13.785156zm0 0" fill="#b0564c"/></svg>