<svg height="464pt" viewBox="0 -48 464.00408 464" width="464pt" xmlns="http://www.w3.org/2000/svg"><path d="m48.003906 40.003906c-13.253906 0-24 10.742188-24 24v240c0 13.253906 10.746094 24 24 24h16v-288zm0 0" fill="#e0e0de"/><path d="m408.003906 40.003906h-16v288h16c13.253906 0 24-10.746094 24-24v-240c0-13.257812-10.746094-24-24-24zm0 0" fill="#e0e0de"/><path d="m64.003906 40.003906h328v288h-328zm0 0" fill="#348fd9"/><path d="m392.003906 84.003906-244 244h244zm0 0" fill="#3086cd"/><path d="m432.003906 272.003906-44-44c-6.628906-6.625-17.371094-6.625-24 0-6.625 6.625-6.625 17.371094 0 24l44 44-.800781 1.046875c-13.675781 18.246094-13.34375 43.417969.800781 61.304688v9.648437h32v-88zm0 0" fill="#fff"/><path d="m13.316406 256.21875c4.648438-.792969 9.410156.503906 13.011719 3.546875s5.679687 7.519531 5.675781 12.238281c0-8.839844 7.164063-16 16-16 8.835938 0 16 7.160156 16 16 0-8.839844 7.164063-16 16-16 8.835938 0 16 7.160156 16 16v-63.144531c-.179687-8.039063 5.429688-15.050781 13.3125-16.640625 4.648438-.792969 9.410156.503906 13.011719 3.546875s5.679687 7.519531 5.675781 12.238281v112l33.351563-20c4.144531-2.496094 9.277343-2.695312 13.601562-.53125l1.253907.632813c4.777343 2.394531 7.792968 7.28125 7.792968 12.625.003906 4.5625-2.199218 8.84375-5.910156 11.496093l-50.089844 35.777344h-127.99999975v-87.144531c-.17968725-8.039063 5.42968775-15.050781 13.31249975-16.640625zm0 0" fill="#fec9a3"/><path d="m456.589844 215.097656-24.585938-31.09375v88l-44-44c-6.628906-6.628906-17.371094-6.628906-24 0-6.628906 6.625-6.628906 17.371094 0 24l44 44-.800781 1.039063c-13.671875 18.855469-13.347656 44.453125.800781 62.960937h56v-124.417968c0-7.488282-2.625-14.738282-7.414062-20.488282zm0 0" fill="#fec9a3"/><path d="m120.003906 80.003906h32v80h-32zm0 0" fill="#e94f4f"/><path d="m184.003906 16.003906h32v144h-32zm0 0" fill="#e94f4f"/><path d="m248.003906 72.003906h32v88h-32zm0 0" fill="#e94f4f"/><path d="m312.003906.00390625h32v159.99999975h-32zm0 0" fill="#e94f4f"/><path d="m96.003906 152.003906h272v16h-272zm0 0" fill="#ffb531"/><g fill="#2a71ad"><path d="m192.003906 184.003906h48v16h-48zm0 0"/><path d="m152.003906 184.003906h24v16h-24zm0 0"/><path d="m320.003906 184.003906h48v16h-48zm0 0"/><path d="m256.003906 184.003906h48v16h-48zm0 0"/><path d="m192.003906 216.003906h48v16h-48zm0 0"/><path d="m152.003906 216.003906h24v16h-24zm0 0"/><path d="m320.003906 216.003906h16v16h-16zm0 0"/><path d="m256.003906 216.003906h48v16h-48zm0 0"/><path d="m192.003906 248.003906h48v16h-48zm0 0"/><path d="m152.003906 248.003906h24v16h-24zm0 0"/><path d="m320.003906 248.003906h16v16h-16zm0 0"/><path d="m256.003906 248.003906h48v16h-48zm0 0"/><path d="m208.003906 280.003906h32v16h-32zm0 0"/><path d="m320.003906 280.003906h48v16h-48zm0 0"/><path d="m256.003906 280.003906h48v16h-48zm0 0"/></g></svg>