<svg height="472pt" viewBox="0 0 472 472" width="472pt" xmlns="http://www.w3.org/2000/svg"><path d="m368 304h-32v-32h32zm0 0" fill="#e0e0de"/><path d="m304 304h96v96h-96zm0 0" fill="#d6d6d4"/><path d="m328 328h16v24h-16zm0 0" fill="#b0b0ae"/><path d="m360 328h16v24h-16zm0 0" fill="#b0b0ae"/><path d="m328 368h16v32h-16zm0 0" fill="#b0b0ae"/><path d="m360 368h16v32h-16zm0 0" fill="#b0b0ae"/><path d="m304 296h112v16h-112zm0 0" fill="#ebebe9"/><path d="m400 464h-96v-64h96zm0 0" fill="#d6d6d4"/><path d="m392 464h-88v-64h56zm0 0" fill="#c7c7c5"/><path d="m372 424 8 16h-76v-16zm0 0" fill="#e0e0de"/><path d="m400 408h-96v-16h96zm0 0" fill="#ebebe9"/><path d="m304 456h112v16h-112zm0 0" fill="#e0e0de"/><path d="m112 400h192v72h-192zm0 0" fill="#e0e0de"/><path d="m112 352h192v48h-192zm0 0" fill="#e0e0de"/><path d="m112 272.496094h192v79.503906h-192zm0 0" fill="#e0e0de"/><g fill="#b0b0ae"><path d="m200 376h16v24h-16zm0 0"/><path d="m168 376h16v24h-16zm0 0"/><path d="m136 376h16v24h-16zm0 0"/><path d="m232 376h16v24h-16zm0 0"/><path d="m264 376h16v24h-16zm0 0"/><path d="m200 432h16v40h-16zm0 0"/><path d="m168 432h16v40h-16zm0 0"/><path d="m136 432h16v40h-16zm0 0"/><path d="m232 432h16v40h-16zm0 0"/><path d="m264 432h16v40h-16zm0 0"/></g><path d="m144 224.496094h128v48h-128zm0 0" fill="#e0e0de"/><path d="m200 224.503906h16v48h-16zm0 0" fill="#b0b0ae"/><path d="m232 224.503906h16v48h-16zm0 0" fill="#b0b0ae"/><path d="m168 224.503906h16v48h-16zm0 0" fill="#b0b0ae"/><path d="m272 224h-128v-8c0-36.847656 27.4375-67.929688 64-72.496094 36.5625 4.566406 64 35.648438 64 72.496094zm0 0" fill="#c7c7c5"/><path d="m200 200.503906h16v24h-16zm0 0" fill="#b0b0ae"/><path d="m168 200.503906h16v24h-16zm0 0" fill="#b0b0ae"/><path d="m232 200.503906h16v24h-16zm0 0" fill="#b0b0ae"/><path d="m192 104h32v64h-32zm0 0" fill="#c7c7c5"/><path d="m200 72h16v32h-16zm0 0" fill="#e0e0de"/><path d="m200 304.503906h16v47.503906h-16zm0 0" fill="#b0b0ae"/><path d="m168 304.503906h16v47.503906h-16zm0 0" fill="#b0b0ae"/><path d="m136 304.503906h16v47.503906h-16zm0 0" fill="#b0b0ae"/><path d="m232 304.503906h16v47.503906h-16zm0 0" fill="#b0b0ae"/><path d="m264 304.503906h16v47.503906h-16zm0 0" fill="#b0b0ae"/><path d="m304 304.496094h-192v-32h192zm0 0" fill="#d6d6d4"/><path d="m144 216h128v16.503906h-128zm0 0" fill="#e0e0de"/><path d="m112 344h192v16h-192zm0 0" fill="#d6d6d4"/><path d="m112 400h192v16h-192zm0 0" fill="#d6d6d4"/><path d="m48 272h32v32h-32zm0 0" fill="#e0e0de"/><path d="m16 304h96v96h-96zm0 0" fill="#d6d6d4"/><path d="m72 328h16v24h-16zm0 0" fill="#b0b0ae"/><path d="m40 328h16v24h-16zm0 0" fill="#b0b0ae"/><path d="m72 368h16v32h-16zm0 0" fill="#b0b0ae"/><path d="m40 368h16v32h-16zm0 0" fill="#b0b0ae"/><path d="m0 296h112v16h-112zm0 0" fill="#ebebe9"/><path d="m16 400h96v64h-96zm0 0" fill="#d6d6d4"/><path d="m24 464h88v-64h-56zm0 0" fill="#c7c7c5"/><path d="m44 424-8 16h76v-16zm0 0" fill="#e0e0de"/><path d="m16 392h96v16h-96zm0 0" fill="#ebebe9"/><path d="m0 456h112v16h-112zm0 0" fill="#e0e0de"/><path d="m304 312v24.601562c7.390625 4.964844 15.480469 8.808594 24 11.398438v-20h16v23.34375c3.488281.421875 7 .640625 10.511719.65625h5.488281v-24h16v24h5.488281c6.21875 0 12.421875-.640625 18.511719-1.910156v-38.089844zm0 0" fill="#c7c7c5"/><path d="m344 328h-16v20c5.222656 1.585938 10.578125 2.691406 16 3.3125zm0 0" fill="#a3a3a1"/><path d="m360 328h16v24h-16zm0 0" fill="#a3a3a1"/><path d="m280 304.496094v8.304687c6.445312 9.351563 14.585938 17.417969 24 23.773438v-32.078125zm0 0" fill="#d6d6d4"/><path d="m408 144h-96c-8.835938 0-16-7.164062-16-16v-64l-7.800781-3.902344c-5.023438-2.511718-8.199219-7.648437-8.199219-13.265625 0-8.191406 6.640625-14.832031 14.832031-14.832031h113.167969zm0 0" fill="#fec9a3"/><path d="m408 32h64v112h-64zm0 0" fill="#348fd9"/><path d="m408 104h64v40h-64zm0 0" fill="#3086cd"/><path d="m432 104h16v16h-16zm0 0" fill="#2a71ad"/><path d="m296 102.398438v25.601562c0 8.835938 7.164062 16 16 16h96v-53.113281c-36.425781 13.410156-79.632812 13.953125-112 11.511719zm0 0" fill="#fec093"/><path d="m384 32h-64l-16-32h96zm0 0" fill="#ffb531"/><path d="m365.488281 336h-26.976562c-49.988281.003906-90.515625-40.523438-90.511719-90.511719 0-24.003906 9.539062-47.027343 26.511719-64l37.488281-37.488281h80l37.488281 37.488281c16.972657 16.972657 26.511719 39.996094 26.511719 64 .003906 49.988281-40.523438 90.515625-90.511719 90.511719zm0 0" fill="#ffb531"/><path d="m429.488281 181.488281-9.152343-9.152343c-35.664063 78.878906-105.230469 113.601562-153.246094 128.617187 17.09375 22.109375 43.472656 35.054687 71.421875 35.046875h26.976562c36.605469 0 69.609375-22.054688 83.617188-55.875 14.011719-33.820312 6.265625-72.75-19.617188-98.636719zm0 0" fill="#ffa912"/><path d="m360 232h-16c-4.417969 0-8-3.582031-8-8s3.582031-8 8-8h32v-16h-16v-16h-16v16c-13.253906 0-24 10.746094-24 24s10.746094 24 24 24h16c4.417969 0 8 3.582031 8 8s-3.582031 8-8 8h-32v16h16v16h16v-16c13.253906 0 24-10.746094 24-24s-10.746094-24-24-24zm0 0" fill="#f98500"/><path d="m408 160-16-16h-80l-16 16zm0 0" fill="#ffa912"/></svg>