<?xml version="1.0" encoding="iso-8859-1"?>
<!-- Generator: Adobe Illustrator 19.0.0, SVG Export Plug-In . SVG Version: 6.00 Build 0)  -->
<svg version="1.1" id="Capa_1" xmlns="http://www.w3.org/2000/svg" xmlns:xlink="http://www.w3.org/1999/xlink" x="0px" y="0px"
	 viewBox="0 0 512 512" style="enable-background:new 0 0 512 512;" xml:space="preserve">
<path style="fill:#87CED9;" d="M485.517,512V207.625C485.517,92.954,392.563,0,277.892,0l0,0C178.15,0,92.513,70.956,73.975,168.96
	L44.138,326.621h61.793v70.621c0,39,31.62,70.621,70.621,70.621h52.966V512H485.517z"/>
<path style="fill:#4398D1;" d="M432.552,238.345v-52.966h-38.488c-2.86-11.873-7.565-23.217-13.948-33.633l27.189-27.277
	L369.876,87.04l-27.277,27.189c-10.417-6.382-21.76-11.087-33.633-13.948V61.793H256v38.488
	c-11.873,2.86-23.217,7.565-33.633,13.948L195.09,87.04l-37.429,37.429l27.189,27.277c-6.382,10.417-11.087,21.76-13.948,33.633
	h-38.488v52.966h38.488c2.86,11.873,7.565,23.217,13.948,33.633l-27.189,27.277l37.429,37.429l27.277-27.189
	c10.417,6.382,21.76,11.087,33.633,13.948v38.488h52.966v-38.488c11.873-2.86,23.217-7.565,33.633-13.948l27.277,27.189
	l37.429-37.429l-27.189-27.277c6.382-10.417,11.087-21.76,13.948-33.633L432.552,238.345L432.552,238.345z"/>
<circle style="fill:#3E8CC7;" cx="282.483" cy="211.862" r="79.448"/>
<g>
	<path style="fill:#3582BD;" d="M282.483,291.31v-17.655c34.127,0,61.793-27.666,61.793-61.793h17.655
		C361.931,255.744,326.365,291.31,282.483,291.31z"/>
	<path style="fill:#3582BD;" d="M220.69,211.862h-17.655c0-43.882,35.566-79.448,79.448-79.448v17.655
		C248.355,150.069,220.69,177.735,220.69,211.862z"/>
</g>
<g>
	<circle style="fill:#87CED9;" cx="282.483" cy="211.862" r="26.483"/>
	<path style="fill:#87CED9;" d="M61.793,70.621L61.793,70.621c-3.001-18.114-17.196-32.309-35.31-35.31l0,0
		C44.597,32.309,58.792,18.114,61.793,0l0,0c3.001,18.114,17.196,32.309,35.31,35.31l0,0C78.989,38.312,64.794,52.506,61.793,70.621
		z"/>
</g>
<g>
	<path style="fill:#D9D9D9;" d="M441.379,349.131l-12.977-12.005c7.521-8.201,14.292-17.064,20.215-26.483l15.007,9.446
		C457.048,330.381,449.607,340.1,441.379,349.131z"/>
	<path style="fill:#D9D9D9;" d="M291.31,414.897h-8.828v-17.655h8.828c45.312,0.009,89.053-16.569,122.968-46.61l11.652,13.241
		C388.82,396.8,340.921,414.95,291.31,414.897z"/>
</g>
<g>
</g>
<g>
</g>
<g>
</g>
<g>
</g>
<g>
</g>
<g>
</g>
<g>
</g>
<g>
</g>
<g>
</g>
<g>
</g>
<g>
</g>
<g>
</g>
<g>
</g>
<g>
</g>
<g>
</g>
</svg>
