<?xml version="1.0" encoding="iso-8859-1"?>
<!-- Generator: Adobe Illustrator 19.0.0, SVG Export Plug-In . SVG Version: 6.00 Build 0)  -->
<svg version="1.1" id="Capa_1" xmlns="http://www.w3.org/2000/svg" xmlns:xlink="http://www.w3.org/1999/xlink" x="0px" y="0px"
	 viewBox="0 0 512 512" style="enable-background:new 0 0 512 512;" xml:space="preserve">
<path style="fill:#3E8CC7;" d="M264.533,458.032v-27.136h-17.067v27.136c-13.329,4.71-20.318,19.337-15.599,32.666
	c4.71,13.329,19.337,20.318,32.666,15.599c13.329-4.71,20.318-19.337,15.599-32.666
	C277.555,466.344,271.821,460.609,264.533,458.032z M256,490.63c-4.71,0-8.533-3.823-8.533-8.533s3.823-8.533,8.533-8.533
	c4.71,0,8.533,3.823,8.533,8.533S260.71,490.63,256,490.63z"/>
<rect x="25.6" y="38.363" style="fill:#D9D9D9;" width="460.8" height="392.533"/>
<g>
	<rect x="8.533" y="4.23" style="fill:#4398D1;" width="494.933" height="34.133"/>
	<rect y="422.32" style="fill:#4398D1;" width="512" height="17.067"/>
	<path style="fill:#4398D1;" d="M256,234.63l90.539-90.539c-24.013-24.004-56.585-37.478-90.539-37.461V234.63z"/>
</g>
<path style="fill:#FDB62F;" d="M346.539,144.091L256,234.63l90.539,90.539c50.005-49.971,50.031-131.012,0.06-181.018
	C346.581,144.133,346.556,144.116,346.539,144.091z"/>
<path style="fill:#DE4C3C;" d="M256,234.63L256,234.63v-128c-70.69,0.034-127.974,57.37-127.94,128.06s57.37,127.974,128.06,127.94
	c33.911-0.017,66.432-13.491,90.419-37.461L256,234.63z"/>
<g>
	<path style="fill:#BDBDBD;" d="M296.704,146.224l-13.141-10.923l42.667-51.2c1.621-1.954,4.036-3.072,6.571-3.072h42.667v17.067
		h-38.656L296.704,146.224z"/>
	<rect x="392.533" y="81.03" style="fill:#BDBDBD;" width="59.733" height="17.067"/>
	<rect x="392.533" y="115.163" style="fill:#BDBDBD;" width="42.667" height="17.067"/>
	<path style="fill:#BDBDBD;" d="M181.675,172.422l-31.573-31.659H128v-17.067h25.6c2.27-0.017,4.446,0.879,6.059,2.475
		l34.133,34.133L181.675,172.422z"/>
	<rect x="59.733" y="123.696" style="fill:#BDBDBD;" width="51.2" height="17.067"/>
	<rect x="59.733" y="157.83" style="fill:#BDBDBD;" width="51.2" height="17.067"/>
	
		<rect x="366.94" y="258.173" transform="matrix(-0.7071 0.7071 -0.7071 -0.7071 849.1437 237.0674)" style="fill:#BDBDBD;" width="17.067" height="72.447"/>
	<rect x="392.533" y="345.563" style="fill:#BDBDBD;" width="59.733" height="17.067"/>
	<rect x="392.533" y="379.696" style="fill:#BDBDBD;" width="59.733" height="17.067"/>
	<rect x="59.733" y="345.563" style="fill:#BDBDBD;" width="59.733" height="17.067"/>
	<rect x="59.733" y="379.696" style="fill:#BDBDBD;" width="42.667" height="17.067"/>
	<rect x="59.733" y="311.43" style="fill:#BDBDBD;" width="59.733" height="17.067"/>
</g>
<rect x="25.6" y="38.363" style="fill:#D1D1D1;" width="460.8" height="17.067"/>
<path style="fill:#F5AB20;" d="M289.536,268.165l57.003,57.003c41.796-41.873,49.451-106.923,18.517-157.355
	C345.506,205.147,319.991,239.041,289.536,268.165z"/>
<path style="fill:#C94536;" d="M181.589,338.651c50.884,36.437,120.653,30.737,164.949-13.483l-57.003-57.003
	C258.022,297.887,221.474,321.755,181.589,338.651z"/>
<g>
</g>
<g>
</g>
<g>
</g>
<g>
</g>
<g>
</g>
<g>
</g>
<g>
</g>
<g>
</g>
<g>
</g>
<g>
</g>
<g>
</g>
<g>
</g>
<g>
</g>
<g>
</g>
<g>
</g>
</svg>
