<?xml version="1.0" encoding="iso-8859-1"?>
<!-- Generator: Adobe Illustrator 19.0.0, SVG Export Plug-In . SVG Version: 6.00 Build 0)  -->
<svg version="1.1" id="Capa_1" xmlns="http://www.w3.org/2000/svg" xmlns:xlink="http://www.w3.org/1999/xlink" x="0px" y="0px"
	 viewBox="0 0 511.993 511.993" style="enable-background:new 0 0 511.993 511.993;" xml:space="preserve">
<path style="fill:#4398D1;" d="M364.462,495.422l-82.455-49.508v-73.091c0-4.786-3.884-8.67-8.67-8.67s-8.67,3.884-8.67,8.67v73.091
	l-82.455,49.508c-4.361,1.968-6.303,7.11-4.327,11.471c1.968,4.361,7.11,6.303,11.471,4.326c0.538-0.243,1.049-0.538,1.526-0.893
	l82.455-49.334l82.281,49.334c1.335,0.798,2.87,1.214,4.422,1.214c4.786,0,8.67-3.884,8.67-8.67
	C368.702,499.818,367.09,496.983,364.462,495.422z"/>
<rect x="264.667" y="372.824" style="fill:#3E8CC7;" width="17.341" height="26.011"/>
<rect x="73.92" y="34.681" style="fill:#D9D9D9;" width="398.835" height="338.143"/>
<rect x="56.579" style="fill:#4398D1;" width="433.516" height="34.681"/>
<g>
	<rect x="203.975" y="60.692" style="fill:#BDBDBD;" width="86.703" height="17.341"/>
	<rect x="308.019" y="60.692" style="fill:#BDBDBD;" width="34.681" height="17.341"/>
</g>
<rect x="56.579" y="364.154" style="fill:#4398D1;" width="433.516" height="17.341"/>
<g>
	<path style="fill:#BDBDBD;" d="M334.03,164.736H212.645c-4.786,0-8.67-3.884-8.67-8.67v-52.022c0-4.786,3.884-8.67,8.67-8.67
		H334.03c4.786,0,8.67,3.884,8.67,8.67v52.022C342.7,160.852,338.816,164.736,334.03,164.736z M221.315,147.396h104.044v-34.681
		H221.315L221.315,147.396L221.315,147.396z"/>
	<rect x="264.667" y="156.066" style="fill:#BDBDBD;" width="17.341" height="60.692"/>
	<path style="fill:#BDBDBD;" d="M386.052,268.78h-17.341v-43.352H177.964v43.352h-17.341v-52.022c0-4.786,3.884-8.67,8.67-8.67
		h208.088c4.786,0,8.67,3.884,8.67,8.67V268.78z"/>
	<path style="fill:#BDBDBD;" d="M438.074,329.472H316.689c-4.786,0-8.67-3.884-8.67-8.67V268.78c0-4.786,3.884-8.67,8.67-8.67
		h121.385c4.786,0,8.67,3.884,8.67,8.67v52.022C446.744,325.588,442.86,329.472,438.074,329.472z M325.359,312.132h104.044V277.45
		H325.359V312.132z"/>
	<path style="fill:#BDBDBD;" d="M229.986,329.472H108.601c-4.786,0-8.67-3.884-8.67-8.67V268.78c0-4.786,3.884-8.67,8.67-8.67
		h121.385c4.786,0,8.67,3.884,8.67,8.67v52.022C238.656,325.588,234.772,329.472,229.986,329.472z M117.272,312.132h104.044V277.45
		H117.272C117.272,277.45,117.272,312.132,117.272,312.132z"/>
</g>
<rect x="73.92" y="34.681" style="fill:#D1D1D1;" width="398.835" height="17.341"/>
<path style="fill:#FEC9A3;" d="M117.272,112.714H30.568v60.692c0,23.939,19.413,43.352,43.352,43.352s43.352-19.413,43.352-43.352
	h17.341L117.272,112.714z"/>
<path style="fill:#5C3724;" d="M90.22,121.385H56.579l-26.011,34.681v-43.352c0-14.367,11.644-26.011,26.011-26.011h78.033
	C129.523,107.079,111.22,121.376,90.22,121.385z"/>
<polyline style="fill:#787D82;" points="21.898,338.143 21.898,502.879 143.283,502.879 125.942,476.868 125.942,338.143 "/>
<path style="fill:#4398D1;" d="M216.98,229.764l-39.016,39.016l-36.762-36.762c-9.771-9.78-23.028-15.268-36.849-15.26H56.579
	c-19.153,0-34.681,15.529-34.681,34.681v86.703h104.044V268.78l26.011,26.011c14.349,14.367,37.621,14.384,51.987,0.035
	c0.009-0.009,0.017-0.017,0.035-0.035l39.016-39.016c7.179-7.17,7.188-18.815,0.017-25.994c-0.009-0.009-0.009-0.009-0.017-0.017
	l0,0c-7.17-7.179-18.815-7.188-25.994-0.017C216.989,229.755,216.98,229.755,216.98,229.764z"/>
<rect x="65.25" y="216.758" style="fill:#3582BD;" width="17.341" height="95.374"/>
<path style="fill:#616569;" d="M81.55,502.879h21.156L82.59,474.093V372.824H65.25v104.044c-0.035,1.777,0.52,3.511,1.561,4.942
	L81.55,502.879z"/>
<circle style="fill:#5C3724;" cx="91.261" cy="147.396" r="8.67"/>
<g>
</g>
<g>
</g>
<g>
</g>
<g>
</g>
<g>
</g>
<g>
</g>
<g>
</g>
<g>
</g>
<g>
</g>
<g>
</g>
<g>
</g>
<g>
</g>
<g>
</g>
<g>
</g>
<g>
</g>
</svg>
