<?xml version="1.0" encoding="iso-8859-1"?>
<!-- Generator: Adobe Illustrator 19.0.0, SVG Export Plug-In . SVG Version: 6.00 Build 0)  -->
<svg version="1.1" id="Capa_1" xmlns="http://www.w3.org/2000/svg" xmlns:xlink="http://www.w3.org/1999/xlink" x="0px" y="0px"
	 viewBox="0 0 512 512" style="enable-background:new 0 0 512 512;" xml:space="preserve">
<path style="fill:#D1D1D1;" d="M0,70.621v370.759h476.69c19.5,0,35.31-15.81,35.31-35.31V70.621H0z"/>
<polygon style="fill:#4398D1;" points="423.724,512 220.69,512 194.207,494.345 220.69,476.69 423.724,476.69 "/>
<rect x="379.586" y="476.69" style="fill:#126099;" width="17.655" height="35.31"/>
<path style="fill:#C7C7C7;" d="M419.928,70.621c-79.978,204.8-217.777,314.703-319.117,370.759H476.69
	c19.5,0,35.31-15.81,35.31-35.31V70.621H419.928z"/>
<path style="fill:#EBEBEB;" d="M459.034,0v370.759h17.655c19.5,0,35.31,15.81,35.31,35.31V35.31C512,15.81,496.19,0,476.69,0
	H459.034z"/>
<g>
	<path style="fill:#3E8CC7;" d="M423.724,273.655h-44.138v-26.483c0-4.873-3.955-8.828-8.828-8.828H264.828V220.69h44.138
		c4.873,0,8.828-3.955,8.828-8.828v-52.966c0-4.873-3.955-8.828-8.828-8.828H203.034c-4.873,0-8.828,3.955-8.828,8.828v52.966
		c0,4.873,3.955,8.828,8.828,8.828h44.138v17.655H141.241c-4.873,0-8.828,3.955-8.828,8.828v26.483H88.276
		c-4.873,0-8.828,3.955-8.828,8.828v52.966c0,4.873,3.955,8.828,8.828,8.828h105.931c4.873,0,8.828-3.955,8.828-8.828v-52.966
		c0-4.873-3.955-8.828-8.828-8.828h-44.138V256h211.862v17.655h-44.138c-4.873,0-8.828,3.955-8.828,8.828v52.966
		c0,4.873,3.955,8.828,8.828,8.828h105.931c4.873,0,8.828-3.955,8.828-8.828v-52.966
		C432.552,277.61,428.597,273.655,423.724,273.655z M211.862,167.724h88.276v35.31h-88.276V167.724z M185.379,326.621H97.103v-35.31
		h88.276V326.621z M414.897,326.621h-88.276v-35.31h88.276V326.621z"/>
	<rect x="79.448" y="361.931" style="fill:#3E8CC7;" width="35.31" height="17.655"/>
	<rect x="132.414" y="361.931" style="fill:#3E8CC7;" width="70.621" height="17.655"/>
	<rect x="308.966" y="361.931" style="fill:#3E8CC7;" width="70.621" height="17.655"/>
	<rect x="397.241" y="361.931" style="fill:#3E8CC7;" width="35.31" height="17.655"/>
	<rect x="167.724" y="114.759" style="fill:#3E8CC7;" width="114.759" height="17.655"/>
	<rect x="300.138" y="114.759" style="fill:#3E8CC7;" width="44.138" height="17.655"/>
</g>
<g>
</g>
<g>
</g>
<g>
</g>
<g>
</g>
<g>
</g>
<g>
</g>
<g>
</g>
<g>
</g>
<g>
</g>
<g>
</g>
<g>
</g>
<g>
</g>
<g>
</g>
<g>
</g>
<g>
</g>
</svg>
