<?xml version="1.0" encoding="iso-8859-1"?>
<!-- Generator: Adobe Illustrator 19.0.0, SVG Export Plug-In . SVG Version: 6.00 Build 0)  -->
<svg version="1.1" id="Capa_1" xmlns="http://www.w3.org/2000/svg" xmlns:xlink="http://www.w3.org/1999/xlink" x="0px" y="0px"
	 viewBox="0 0 512 512" style="enable-background:new 0 0 512 512;" xml:space="preserve">
<path style="fill:#4398D1;" d="M256,59.733C147.601,59.733,59.733,147.601,59.733,256S147.601,452.267,256,452.267
	S452.267,364.399,452.267,256H256V59.733z"/>
<path style="fill:#FDB62F;" d="M452.267,256H256l138.752,138.752C431.65,358.016,452.352,308.07,452.267,256z"/>
<path style="fill:#F46B27;" d="M290.133,25.6v196.267H486.4C486.4,113.468,398.532,25.6,290.133,25.6z"/>
<g>
	<rect y="34.133" style="fill:#DBDBDB;" width="76.8" height="17.067"/>
	<rect y="68.267" style="fill:#DBDBDB;" width="76.8" height="17.067"/>
	
		<rect x="68.274" y="90.449" transform="matrix(-0.6247 0.7809 -0.7809 -0.6247 238.0993 175.7744)" style="fill:#DBDBDB;" width="17.067" height="109.315"/>
	<rect x="435.2" style="fill:#DBDBDB;" width="76.8" height="17.067"/>
	<rect x="435.2" y="34.133" style="fill:#DBDBDB;" width="76.8" height="17.067"/>
	
		<rect x="392.533" y="85.419" transform="matrix(-0.8 0.6 -0.6 -0.8 839.7313 -92.0065)" style="fill:#DBDBDB;" width="85.333" height="17.067"/>
</g>
<g>
	<rect x="162.133" y="494.933" style="fill:#87CED9;" width="17.067" height="17.067"/>
	<rect x="196.267" y="494.933" style="fill:#87CED9;" width="17.067" height="17.067"/>
	<rect x="230.4" y="494.933" style="fill:#87CED9;" width="17.067" height="17.067"/>
	<rect x="264.533" y="494.933" style="fill:#87CED9;" width="17.067" height="17.067"/>
	<rect x="298.667" y="494.933" style="fill:#87CED9;" width="17.067" height="17.067"/>
	<rect x="332.8" y="494.933" style="fill:#87CED9;" width="17.067" height="17.067"/>
</g>
<g>
	<rect y="409.6" style="fill:#DBDBDB;" width="76.8" height="17.067"/>
	<rect y="443.733" style="fill:#DBDBDB;" width="59.733" height="17.067"/>
	<rect y="375.467" style="fill:#DBDBDB;" width="76.8" height="17.067"/>
</g>
<path style="fill:#3E8CC7;" d="M375.467,375.467l-46.336-46.336c-57.899,39.612-122.701,68.036-191.061,83.797
	c78.148,58.701,187.58,50.953,256.683-18.176L375.467,375.467z"/>
<path style="fill:#F5AB20;" d="M329.131,329.131l65.621,65.621c8.909-8.875,16.939-18.594,23.979-29.013
	c3.55-5.111,6.827-10.411,9.813-15.872c1.536-2.731,2.987-5.572,4.352-8.533c2.773-5.726,5.248-11.597,7.424-17.579
	c2.219-6.059,4.181-12.203,5.803-18.432c1.621-6.229,2.901-12.715,3.84-19.2c1.562-9.967,2.33-20.036,2.304-30.123h-45.397
	C384.521,283.904,358.349,308.523,329.131,329.131z"/>
<g>
	<rect x="435.2" y="392.533" style="fill:#DBDBDB;" width="76.8" height="17.067"/>
	<rect x="435.2" y="426.667" style="fill:#DBDBDB;" width="76.8" height="17.067"/>
	
		<rect x="426.667" y="298.667" transform="matrix(-0.6 0.8 -0.8 -0.6 969.3867 197.9733)" style="fill:#DBDBDB;" width="17.067" height="85.333"/>
</g>
<g>
</g>
<g>
</g>
<g>
</g>
<g>
</g>
<g>
</g>
<g>
</g>
<g>
</g>
<g>
</g>
<g>
</g>
<g>
</g>
<g>
</g>
<g>
</g>
<g>
</g>
<g>
</g>
<g>
</g>
</svg>
