<?xml version="1.0" encoding="iso-8859-1"?>
<!-- Generator: Adobe Illustrator 19.0.0, SVG Export Plug-In . SVG Version: 6.00 Build 0)  -->
<svg version="1.1" id="Capa_1" xmlns="http://www.w3.org/2000/svg" xmlns:xlink="http://www.w3.org/1999/xlink" x="0px" y="0px"
	 viewBox="0 0 512 512" style="enable-background:new 0 0 512 512;" xml:space="preserve">
<path style="fill:#4398D1;" d="M220.69,0h66.56c55.87,0,101.164,45.294,101.164,101.164v183.79
	c0,18.141-14.707,32.839-32.839,32.839l0,0h-199.15c-18.132,0-32.839-14.707-32.839-32.839l0,0V97.103
	C123.586,43.476,167.062,0,220.69,0z"/>
<path style="fill:#3E8CC7;" d="M359.371,29.043c-12.888,199.503-122.527,266.505-207.095,288.75c1.386,0.088,2.763,0.088,4.149,0
	h199.15c18.088,0.053,32.786-14.574,32.839-32.662c0-0.062,0-0.115,0-0.177V97.103C388.378,71.415,377.9,46.839,359.371,29.043z"/>
<path style="fill:#4398D1;" d="M150.069,264.828h211.862c14.627,0,26.483,11.855,26.483,26.483l0,0
	c0,14.627-11.855,26.483-26.483,26.483H150.069c-14.627,0-26.483-11.855-26.483-26.483l0,0
	C123.586,276.683,135.442,264.828,150.069,264.828z"/>
<rect x="220.69" y="317.793" style="fill:#DBDBDB;" width="70.621" height="35.31"/>
<path style="fill:#4398D1;" d="M70.621,176.552h35.31c9.754,0,17.655,7.901,17.655,17.655l0,0c0,9.754-7.901,17.655-17.655,17.655
	h-35.31c-9.754,0-17.655-7.901-17.655-17.655l0,0C52.966,184.452,60.866,176.552,70.621,176.552z"/>
<path style="fill:#DBDBDB;" d="M123.586,300.138h-18.979c-13.877-0.044-25.114-11.282-25.159-25.159v-63.117h17.655v63.117
	c0,4.14,3.363,7.503,7.503,7.503h18.979V300.138z"/>
<path style="fill:#4398D1;" d="M441.379,211.862h-35.31c-9.754,0-17.655-7.901-17.655-17.655l0,0
	c0-9.754,7.901-17.655,17.655-17.655h35.31c9.754,0,17.655,7.901,17.655,17.655l0,0
	C459.034,203.961,451.134,211.862,441.379,211.862z"/>
<path style="fill:#DBDBDB;" d="M407.393,300.138h-18.979v-17.655h18.979c4.14,0,7.503-3.363,7.503-7.503v-63.117h17.655v63.117
	C432.508,288.856,421.27,300.094,407.393,300.138z"/>
<path id="SVGCleanerId_0" style="fill:#DBDBDB;" d="M388.414,459.034l-4.061-20.215c-2.878-14.371-14.327-25.468-28.778-27.895
	l-73.092-12.182c-5.049-0.856-8.775-5.199-8.828-10.328v-35.31h-35.31v35.31c-0.018,5.155-3.743,9.56-8.828,10.417l-73.181,12.182
	c-14.451,2.428-25.9,13.524-28.778,27.895l-3.972,20.127l35.31,17.655l8.828-35.31l70.621-8.828v35.31h35.31v-35.31l70.621,8.828
	l8.828,35.31L388.414,459.034z"/>
<g>
	<path id="SVGCleanerId_0_1_" style="fill:#DBDBDB;" d="M388.414,459.034l-4.061-20.215c-2.878-14.371-14.327-25.468-28.778-27.895
		l-73.092-12.182c-5.049-0.856-8.775-5.199-8.828-10.328v-35.31h-35.31v35.31c-0.018,5.155-3.743,9.56-8.828,10.417l-73.181,12.182
		c-14.451,2.428-25.9,13.524-28.778,27.895l-3.972,20.127l35.31,17.655l8.828-35.31l70.621-8.828v35.31h35.31v-35.31l70.621,8.828
		l8.828,35.31L388.414,459.034z"/>
</g>
<rect x="238.345" y="353.103" style="fill:#D1D1D1;" width="35.31" height="26.483"/>
<g>
	<circle style="fill:#4398D1;" cx="132.414" cy="485.517" r="26.483"/>
	<circle style="fill:#4398D1;" cx="379.586" cy="485.517" r="26.483"/>
	<circle style="fill:#4398D1;" cx="256" cy="485.517" r="26.483"/>
</g>
<g>
</g>
<g>
</g>
<g>
</g>
<g>
</g>
<g>
</g>
<g>
</g>
<g>
</g>
<g>
</g>
<g>
</g>
<g>
</g>
<g>
</g>
<g>
</g>
<g>
</g>
<g>
</g>
<g>
</g>
</svg>
