<?xml version="1.0" encoding="iso-8859-1"?>
<!-- Generator: Adobe Illustrator 19.0.0, SVG Export Plug-In . SVG Version: 6.00 Build 0)  -->
<svg version="1.1" id="Capa_1" xmlns="http://www.w3.org/2000/svg" xmlns:xlink="http://www.w3.org/1999/xlink" x="0px" y="0px"
	 viewBox="0 0 512 512" style="enable-background:new 0 0 512 512;" xml:space="preserve">
<g>
	<rect x="477.867" y="409.6" style="fill:#DBDBDB;" width="17.067" height="59.733"/>
	<rect x="477.867" y="486.4" style="fill:#DBDBDB;" width="17.067" height="25.6"/>
	<rect x="17.067" y="34.133" style="fill:#DBDBDB;" width="17.067" height="93.867"/>
	<rect x="17.067" style="fill:#DBDBDB;" width="17.067" height="17.067"/>
	
		<rect x="28.83" y="388.277" transform="matrix(-0.7071 0.7071 -0.7071 -0.7071 360.6856 644.22)" style="fill:#DBDBDB;" width="36.181" height="17.067"/>
	<rect x="119.467" y="409.6" style="fill:#DBDBDB;" width="17.067" height="34.133"/>
	
		<rect x="66.236" y="409.677" transform="matrix(-0.4473 0.8944 -0.8944 -0.4473 497.5088 528.9748)" style="fill:#DBDBDB;" width="38.145" height="17.067"/>
	
		<rect x="446.977" y="106.668" transform="matrix(-0.7071 0.7071 -0.7071 -0.7071 875.3797 -132.1908)" style="fill:#DBDBDB;" width="36.181" height="17.067"/>
	<rect x="375.467" y="68.267" style="fill:#DBDBDB;" width="17.067" height="34.133"/>
	
		<rect x="407.63" y="85.42" transform="matrix(-0.4473 0.8944 -0.8944 -0.4473 701.5939 -245.6583)" style="fill:#DBDBDB;" width="38.145" height="17.067"/>
</g>
<path style="fill:#F7BB8F;" d="M68.267,324.267v8.533c0,18.85,15.283,34.133,34.133,34.133h59.733
	c18.85,0,34.133-15.283,34.133-34.133V153.6h-128V324.267z"/>
<rect x="59.733" style="fill:#4398D1;" width="145.067" height="119.467"/>
<rect x="145.067" style="fill:#3E8CC7;" width="59.733" height="119.467"/>
<rect x="68.267" y="119.467" style="fill:#DBDBDB;" width="128" height="34.133"/>
<rect x="145.067" y="119.467" style="fill:#D1D1D1;" width="51.2" height="34.133"/>
<rect x="162.133" y="76.8" style="fill:#D9D9D9;" width="17.067" height="17.067"/>
<path style="fill:#88B337;" d="M34.133,264.533v76.8l0,0c16.683-11.102,36.275-17.041,56.32-17.067h92.075
	c20.07-0.009,39.697-5.948,56.405-17.067l0,0V204.8l0,0c-16.708,11.119-36.335,17.058-56.405,17.067H76.8
	C53.239,221.867,34.133,240.973,34.133,264.533z"/>
<path style="fill:#FEC9A3;" d="M145.067,187.733L145.067,187.733c-16.119,21.487-41.404,34.133-68.267,34.133l0,0l-22.955,27.563
	c-11.179,13.5-30.763,16.341-45.312,6.571l0,0l59.733-102.4h102.4L145.067,187.733z"/>
<path style="fill:#6B962A;" d="M85.333,324.267h5.291h91.904c20.07-0.009,39.697-5.948,56.405-17.067l0,0V204.8
	c-15.232,10.163-32.913,16.06-51.2,17.067L85.333,324.267z"/>
<circle style="fill:#D9D9D9;" cx="136.533" cy="273.067" r="25.6"/>
<path style="fill:#F7BB8F;" d="M443.733,187.733V179.2c0-18.85-15.283-34.133-34.133-34.133h-59.733
	c-18.85,0-34.133,15.283-34.133,34.133v179.2h128V187.733z"/>
<rect x="307.2" y="392.533" style="fill:#4398D1;" width="145.067" height="119.467"/>
<rect x="392.533" y="392.533" style="fill:#3E8CC7;" width="59.733" height="119.467"/>
<rect x="315.733" y="358.4" style="fill:#DBDBDB;" width="128" height="34.133"/>
<rect x="332.8" y="418.133" style="fill:#D9D9D9;" width="17.067" height="17.067"/>
<path style="fill:#88B337;" d="M477.867,247.467v-76.8l0,0c-16.683,11.102-36.275,17.041-56.32,17.067h-92.075
	c-20.07,0.009-39.697,5.948-56.405,17.067l0,0v102.4l0,0c16.708-11.119,36.335-17.058,56.405-17.067H435.2
	C458.761,290.133,477.867,271.027,477.867,247.467z"/>
<path style="fill:#6B962A;" d="M324.267,290.133h5.376h92.075c19.985-0.043,39.518-5.982,56.149-17.067l0,0v-102.4
	c-15.215,10.197-32.905,16.094-51.2,17.067L324.267,290.133z"/>
<circle style="fill:#D9D9D9;" cx="375.467" cy="238.933" r="25.6"/>
<path style="fill:#FEC9A3;" d="M366.933,324.267L366.933,324.267c16.119-21.487,41.404-34.133,68.267-34.133l0,0l22.955-27.563
	c11.179-13.5,30.763-16.341,45.312-6.571l0,0l-59.733,102.4h-102.4L366.933,324.267z"/>
<rect x="392.533" y="358.4" style="fill:#D1D1D1;" width="59.733" height="34.133"/>
<g>
</g>
<g>
</g>
<g>
</g>
<g>
</g>
<g>
</g>
<g>
</g>
<g>
</g>
<g>
</g>
<g>
</g>
<g>
</g>
<g>
</g>
<g>
</g>
<g>
</g>
<g>
</g>
<g>
</g>
</svg>
