<?xml version="1.0" encoding="iso-8859-1"?>
<!-- Generator: Adobe Illustrator 19.0.0, SVG Export Plug-In . SVG Version: 6.00 Build 0)  -->
<svg version="1.1" id="Capa_1" xmlns="http://www.w3.org/2000/svg" xmlns:xlink="http://www.w3.org/1999/xlink" x="0px" y="0px"
	 viewBox="0 0 512 512" style="enable-background:new 0 0 512 512;" xml:space="preserve">
<polygon style="fill:#3E8CC7;" points="141.241,176.552 141.241,300.138 397.241,397.241 397.241,79.448 "/>
<polygon style="fill:#4398D1;" points="141.241,176.552 141.241,300.138 397.241,397.241 397.241,79.448 "/>
<path style="fill:#3E8CC7;" d="M397.241,79.448l-31.603,12.006c-7.592,129.236-64.794,202.417-131.178,243.994l162.781,61.793
	V79.448z"/>
<polygon style="fill:#D9D9D9;" points="123.586,335.448 141.241,300.138 143.448,273.655 26.483,273.655 35.31,300.138 
	97.103,459.034 167.724,432.552 "/>
<polygon style="fill:#BDBDBD;" points="42.196,317.793 132.414,317.793 141.241,300.138 143.448,273.655 26.483,273.655 
	35.31,300.138 "/>
<path id="SVGCleanerId_0" style="fill:#D9D9D9;" d="M35.31,176.552h105.931l0,0v123.586l0,0H35.31c-19.5,0-35.31-15.81-35.31-35.31
	v-52.966C0,192.362,15.81,176.552,35.31,176.552z"/>
<g>
	<path id="SVGCleanerId_0_1_" style="fill:#D9D9D9;" d="M35.31,176.552h105.931l0,0v123.586l0,0H35.31
		c-19.5,0-35.31-15.81-35.31-35.31v-52.966C0,192.362,15.81,176.552,35.31,176.552z"/>
</g>
<polygon style="fill:#D9D9D9;" points="441.379,194.207 441.379,282.483 512,264.828 512,211.862 "/>
<g>
	<rect x="61.793" y="203.034" style="fill:#3582BD;" width="17.655" height="35.31"/>
	<rect x="26.483" y="203.034" style="fill:#3582BD;" width="17.655" height="35.31"/>
</g>
<path style="fill:#4398D1;" d="M419.31,52.966L419.31,52.966c12.191,0,22.069,9.878,22.069,22.069v326.621
	c0,12.191-9.878,22.069-22.069,22.069l0,0c-12.191,0-22.069-9.878-22.069-22.069V75.034
	C397.241,62.844,407.119,52.966,419.31,52.966z"/>
<polygon style="fill:#3582BD;" points="370.759,238.345 370.759,89.512 353.103,96.221 353.103,238.345 "/>
<polygon style="fill:#BDBDBD;" points="441.379,238.345 441.379,282.483 512,264.828 512,238.345 "/>
<path style="fill:#D1D1D1;" d="M10.328,289.721c6.612,6.656,15.598,10.399,24.982,10.417h105.931V191.735
	C117.672,254.499,52.171,281.07,10.328,289.721z"/>
<g>
</g>
<g>
</g>
<g>
</g>
<g>
</g>
<g>
</g>
<g>
</g>
<g>
</g>
<g>
</g>
<g>
</g>
<g>
</g>
<g>
</g>
<g>
</g>
<g>
</g>
<g>
</g>
<g>
</g>
</svg>
