<?xml version="1.0" encoding="iso-8859-1"?>
<!-- Generator: Adobe Illustrator 19.0.0, SVG Export Plug-In . SVG Version: 6.00 Build 0)  -->
<svg version="1.1" id="Capa_1" xmlns="http://www.w3.org/2000/svg" xmlns:xlink="http://www.w3.org/1999/xlink" x="0px" y="0px"
	 viewBox="0 0 512.006 512.006" style="enable-background:new 0 0 512.006 512.006;" xml:space="preserve">
<path id="SVGCleanerId_0" style="fill:#FA962A;" d="M427.736,77.779h-220.64c-7.084-0.009-13.884-2.825-18.892-7.842l-28.872-28.872
	c-5.008-5.017-11.807-7.833-18.892-7.842H26.733C11.968,33.224,0,45.191,0,59.957v418.825h427.736l26.734-98.023V104.513
	C454.469,89.747,442.502,77.779,427.736,77.779z"/>
<g>
	<path id="SVGCleanerId_0_1_" style="fill:#FA962A;" d="M427.736,77.779h-220.64c-7.084-0.009-13.884-2.825-18.892-7.842
		l-28.872-28.872c-5.008-5.017-11.807-7.833-18.892-7.842H26.733C11.968,33.224,0,45.191,0,59.957v418.825h427.736l26.734-98.023
		V104.513C454.469,89.747,442.502,77.779,427.736,77.779z"/>
</g>
<rect x="53.467" y="131.246" style="fill:#EBEBEB;" width="347.535" height="294.068"/>
<g>
	<rect x="98.023" y="175.802" style="fill:#BDBDBD;" width="17.822" height="71.289"/>
	<rect x="142.579" y="175.802" style="fill:#BDBDBD;" width="17.822" height="71.289"/>
	<rect x="187.134" y="175.802" style="fill:#BDBDBD;" width="17.822" height="71.289"/>
	<rect x="231.69" y="175.802" style="fill:#BDBDBD;" width="17.822" height="71.289"/>
</g>
<path style="fill:#FFA230;" d="M445.558,478.782l65.943-272.058c2.317-9.571-3.564-19.195-13.135-21.512
	c-1.363-0.33-2.754-0.499-4.153-0.499H264.305c-9.455-0.009-18.526,3.743-25.219,10.426l-23.704,23.704
	c-6.692,6.683-15.764,10.435-25.219,10.426H83.23c-12.262,0-22.946,8.341-25.931,20.228L0,478.782H445.558z"/>
<path style="fill:#FDB62F;" d="M445.558,478.782l65.943-272.058c2.317-9.571-3.564-19.195-13.135-21.512
	c-1.363-0.33-2.754-0.499-4.153-0.499H264.305c-9.455-0.009-18.526,3.743-25.219,10.426l-23.704,23.704
	c-6.692,6.683-15.764,10.435-25.219,10.426H83.23c-12.262,0-22.946,8.341-25.931,20.228L0,478.782H445.558z"/>
<path style="fill:#FFA83D;" d="M494.213,184.713h-39.744c-46.605,153.718-182.055,243.186-287.831,294.068h278.919l65.943-272.058
	c2.317-9.571-3.564-19.195-13.135-21.512C497.002,184.883,495.612,184.722,494.213,184.713z"/>
<g>
</g>
<g>
</g>
<g>
</g>
<g>
</g>
<g>
</g>
<g>
</g>
<g>
</g>
<g>
</g>
<g>
</g>
<g>
</g>
<g>
</g>
<g>
</g>
<g>
</g>
<g>
</g>
<g>
</g>
</svg>
