<?xml version="1.0" encoding="iso-8859-1"?>
<!-- Generator: Adobe Illustrator 19.0.0, SVG Export Plug-In . SVG Version: 6.00 Build 0)  -->
<svg version="1.1" id="Capa_1" xmlns="http://www.w3.org/2000/svg" xmlns:xlink="http://www.w3.org/1999/xlink" x="0px" y="0px"
	 viewBox="0 0 512 512" style="enable-background:new 0 0 512 512;" xml:space="preserve">
<path style="fill:#DE4C3C;" d="M242.983,104.136c-28.759,0-52.068-23.309-52.068-52.068S214.224,0,242.983,0
	s52.068,23.309,52.068,52.068S271.742,104.136,242.983,104.136z M242.983,17.356c-19.17,0-34.712,15.542-34.712,34.712
	s15.542,34.712,34.712,34.712s34.712-15.542,34.712-34.712S262.153,17.356,242.983,17.356z"/>
<g>
	<polygon style="fill:#BDBDBD;" points="112.814,104.136 78.102,130.169 136.678,207.23 171.39,181.196 	"/>
	<polygon style="fill:#BDBDBD;" points="373.153,104.136 317.874,179.026 352.586,205.06 407.864,130.169 	"/>
</g>
<g>
	<circle style="fill:#D9D9D9;" cx="242.983" cy="312.407" r="199.593"/>
	<rect x="225.627" y="60.746" style="fill:#D9D9D9;" width="34.712" height="60.746"/>
</g>
<circle style="fill:#C94536;" cx="242.983" cy="312.407" r="164.881"/>
<circle style="fill:#DE4C3C;" cx="242.983" cy="312.407" r="147.525"/>
<path style="fill:#C94536;" d="M358.747,194.994c-7.029,159.761-107.086,229.359-199.073,259.471
	c78.761,45.707,179.66,18.918,225.367-59.843C422.643,329.832,411.839,247.834,358.747,194.994z"/>
<path style="fill:#FFFFFF;" d="M242.983,208.271L242.983,208.271c-47.928,0-86.78,38.851-86.78,86.78v52.068
	c0,9.589,7.767,17.356,17.356,17.356h17.356v34.712h104.136v-34.712h17.356c9.589,0,17.356-7.767,17.356-17.356v-52.068
	C329.763,247.122,290.911,208.271,242.983,208.271z"/>
<g>
	<rect x="216.949" y="364.475" style="fill:#BDBDBD;" width="17.356" height="34.712"/>
	<rect x="251.661" y="364.475" style="fill:#BDBDBD;" width="17.356" height="34.712"/>
</g>
<g>
	<circle style="fill:#DE4C3C;" cx="208.271" cy="312.407" r="17.356"/>
	<circle style="fill:#DE4C3C;" cx="277.695" cy="312.407" r="17.356"/>
	<rect x="381.831" y="34.712" style="fill:#DE4C3C;" width="17.356" height="34.712"/>
	<rect x="433.898" y="104.136" style="fill:#DE4C3C;" width="34.712" height="17.356"/>
	
		<rect x="419.847" y="56.439" transform="matrix(-0.7071 0.7071 -0.7071 -0.7071 794.1743 -198.724)" style="fill:#DE4C3C;" width="36.794" height="17.356"/>
</g>
<g>
	<path style="fill:#5C3724;" d="M251.661,182.237v-34.278c-2.864,0-5.727-0.434-8.678-0.434c-2.951,0-5.814,0-8.678,0.434v34.278
		H251.661z"/>
	<path style="fill:#5C3724;" d="M234.305,425.22v52.068c2.864,0,5.727,0,8.678,0c2.951,0,5.814,0,8.678,0V425.22H234.305z"/>
	<path style="fill:#5C3724;" d="M130.169,295.051H79.056c-0.625,5.762-0.946,11.559-0.955,17.356h52.068V295.051z"/>
	<path style="fill:#5C3724;" d="M355.797,295.051v17.356h52.068c-0.009-5.797-0.33-11.594-0.955-17.356H355.797z"/>
	<path style="fill:#5C3724;" d="M150.042,384.347l-33.323,34.018c3.74,4.434,7.706,8.661,11.889,12.67l33.757-34.712
		L150.042,384.347z"/>
	<path style="fill:#5C3724;" d="M335.924,223.111l25.513-25.253c-4.044-4.183-8.296-8.149-12.757-11.889l-25.079,24.819
		L335.924,223.111z"/>
	<path style="fill:#5C3724;" d="M162.365,210.788l-25.34-24.645c-4.434,3.74-8.661,7.706-12.67,11.889l26.034,25.079
		L162.365,210.788z"/>
	<path style="fill:#5C3724;" d="M323.601,396.67l33.671,34.712c4.235-3.983,8.235-8.218,11.976-12.67l-33.323-34.018L323.601,396.67
		z"/>
</g>
<g>
</g>
<g>
</g>
<g>
</g>
<g>
</g>
<g>
</g>
<g>
</g>
<g>
</g>
<g>
</g>
<g>
</g>
<g>
</g>
<g>
</g>
<g>
</g>
<g>
</g>
<g>
</g>
<g>
</g>
</svg>
