<?xml version="1.0" encoding="iso-8859-1"?>
<!-- Generator: Adobe Illustrator 19.0.0, SVG Export Plug-In . SVG Version: 6.00 Build 0)  -->
<svg version="1.1" id="Capa_1" xmlns="http://www.w3.org/2000/svg" xmlns:xlink="http://www.w3.org/1999/xlink" x="0px" y="0px"
	 viewBox="0 0 512 512" style="enable-background:new 0 0 512 512;" xml:space="preserve">
<circle style="fill:#FDB62F;" cx="406.069" cy="361.931" r="105.931"/>
<circle style="fill:#FFA83D;" cx="406.069" cy="361.931" r="79.448"/>
<circle style="fill:#FDB62F;" cx="105.931" cy="361.931" r="105.931"/>
<circle style="fill:#FFA83D;" cx="105.931" cy="361.931" r="79.448"/>
<circle style="fill:#FDB62F;" cx="256" cy="141.241" r="105.931"/>
<circle style="fill:#FFA83D;" cx="256" cy="141.241" r="79.448"/>
<g>
	<path style="fill:#FD7B2F;" d="M256,220.69v-17.655c34.127,0,61.793-27.666,61.793-61.793h17.655
		C335.448,185.123,299.882,220.69,256,220.69z"/>
	<path style="fill:#FD7B2F;" d="M194.207,141.241h-17.655c0-43.882,35.566-79.448,79.448-79.448v17.655
		C221.873,79.448,194.207,107.114,194.207,141.241z"/>
	<path style="fill:#FD7B2F;" d="M291.31,132.414v-3.354c-0.044-12.756-10.372-23.084-23.128-23.128h-3.354v-8.828h-17.655v8.828
		h-3.354c-12.774-0.177-23.27,10.037-23.446,22.802c-0.159,11.555,8.227,21.451,19.65,23.19l29.043,4.855
		c3.019,0.247,5.279,2.895,5.032,5.914c-0.247,3.019-2.895,5.279-5.914,5.032l0,0h-24.364c-3.019,0-5.473-2.454-5.473-5.473l0,0
		v-3.354H220.69v3.354c0.044,12.756,10.372,23.084,23.128,23.128h3.354v8.828h17.655v-8.828h3.354
		c12.774,0.177,23.27-10.037,23.446-22.802c0.159-11.555-8.227-21.451-19.65-23.19l-29.043-4.855
		c-3.019-0.247-5.279-2.895-5.032-5.914c0.247-3.019,2.895-5.279,5.914-5.032h24.364c3.019,0,5.473,2.454,5.473,5.473v3.354H291.31z
		"/>
	<path style="fill:#FD7B2F;" d="M105.931,441.379v-17.655c34.127,0,61.793-27.666,61.793-61.793h17.655
		C185.379,405.813,149.813,441.379,105.931,441.379z"/>
	<path style="fill:#FD7B2F;" d="M44.138,361.931H26.483c0-43.882,35.566-79.448,79.448-79.448v17.655
		C71.804,300.138,44.138,327.804,44.138,361.931z"/>
	<path style="fill:#FD7B2F;" d="M406.069,441.379v-17.655c34.127,0,61.793-27.666,61.793-61.793h17.655
		C485.517,405.813,449.951,441.379,406.069,441.379z"/>
	<path style="fill:#FD7B2F;" d="M344.276,361.931h-17.655c0-43.882,35.566-79.448,79.448-79.448v17.655
		C371.941,300.138,344.276,327.804,344.276,361.931z"/>
	<path style="fill:#FD7B2F;" d="M397.241,379.586v-8.828h17.655v-17.655h-17.655v-13.241c0.009-7.309,5.941-13.233,13.25-13.233
		c3.505,0,6.868,1.395,9.348,3.875l12.712-12.712c-5.817-5.756-13.709-8.934-21.892-8.828c-17.064-0.097-30.976,13.656-31.073,30.72
		c0,0.062,0,0.115,0,0.177v13.241h-8.828v17.655h8.828v8.828c0,4.873-3.955,8.828-8.828,8.828c-4.873,0-8.828,3.955-8.828,8.828
		c0,4.873,3.955,8.828,8.828,8.828h52.966v-17.655h-27.983C396.738,385.58,397.25,382.596,397.241,379.586z"/>
	<path style="fill:#FD7B2F;" d="M110.345,397.241c-6.947,0-13.489-3.266-17.655-8.828h13.241v-17.655H88.276v-8.828h17.655v-17.655
		H92.778c7.256-9.737,21.027-11.75,30.755-4.493c0.927,0.689,1.801,1.457,2.613,2.286l12.535-12.359
		c-15.272-15.616-40.316-15.89-55.923-0.618c-4.352,4.255-7.654,9.445-9.666,15.183H61.793v17.655h8.828v8.828h-8.828v17.655h11.211
		c5.641,15.801,20.568,26.386,37.341,26.483c10.673,0.044,20.904-4.264,28.337-11.917l-12.623-12.359
		C121.935,394.867,116.268,397.259,110.345,397.241z"/>
</g>
<g>
	<path style="fill:#87CED9;" d="M211.862,498.494c5.914,1.236,12.006,2.295,18.097,3.001l2.207-17.655
		c-5.65-0.706-11.211-1.677-16.684-2.737L211.862,498.494z"/>
	<path style="fill:#87CED9;" d="M176.552,488.077c5.738,2.207,11.564,4.237,17.655,5.914l5.032-16.861
		c-5.385-1.589-10.77-3.443-15.978-5.561L176.552,488.077z"/>
	<path style="fill:#87CED9;" d="M251.321,485.517h-2.472l-0.618,17.655h2.56c5.297,0,10.593,0,15.801,0l-0.794-17.655
		C261.032,485.517,256,485.517,251.321,485.517z"/>
	<path style="fill:#87CED9;" d="M282.483,483.928l2.207,17.655c6.091-0.706,12.182-1.766,17.655-3.001l-3.619-17.655
		C293.87,482.251,288.221,483.222,282.483,483.928z"/>
	<path style="fill:#87CED9;" d="M331.652,471.305c-5.208,2.119-10.593,3.972-15.978,5.561l5.12,16.949
		c5.826-1.766,11.652-3.796,17.655-6.091L331.652,471.305z"/>
	<path style="fill:#87CED9;" d="M468.745,202.328c-1.854-5.738-3.884-11.564-6.179-17.655l-16.419,6.709
		c2.119,5.208,4.061,10.505,5.738,15.89L468.745,202.328z"/>
	<path style="fill:#87CED9;" d="M476.69,238.345c-0.794-6.091-1.942-12.182-3.266-17.655l-17.655,3.796
		c1.236,5.473,2.207,11.034,3.001,16.596L476.69,238.345z"/>
	<path style="fill:#87CED9;" d="M438.113,174.168l1.059,2.119l15.801-7.945l-1.236-2.295c-2.472-4.767-5.032-8.828-7.768-13.771
		l-15.007,9.269C433.434,165.606,435.818,169.843,438.113,174.168z"/>
	<path style="fill:#87CED9;" d="M421.517,147.509l14.212-10.505c-3.531-4.855-7.415-9.71-11.476-14.301l-13.33,11.564
		C414.897,138.505,418.251,142.919,421.517,147.509z"/>
	<path style="fill:#87CED9;" d="M386.737,110.786c4.326,3.531,8.828,7.327,12.623,11.211l12.27-12.623
		c-4.414-4.326-8.828-8.828-13.683-12.27L386.737,110.786z"/>
	<path style="fill:#87CED9;" d="M91.895,123.586c-4.149,4.502-8.21,8.828-12.006,13.948l13.859,10.946
		c3.531-4.414,7.239-8.828,11.034-12.8L91.895,123.586z"/>
	<path style="fill:#87CED9;" d="M119.172,99.31c-4.855,3.708-9.622,7.68-14.124,11.741l11.829,13.153
		c4.14-3.805,8.474-7.398,12.977-10.77L119.172,99.31z"/>
	<path style="fill:#87CED9;" d="M82.538,164.546l1.324-2.03l-14.742-9.71l-1.412,2.119c-2.913,4.502-5.561,8.828-8.121,13.506
		l15.448,8.828C77.33,172.756,79.448,168.607,82.538,164.546z"/>
	<path style="fill:#87CED9;" d="M67.443,192.088l-16.066-7.239c-2.472,5.561-4.767,11.388-6.797,17.126l16.596,5.826
		C63.029,202.505,65.148,197.208,67.443,192.088z"/>
	<path style="fill:#87CED9;" d="M52.966,240.552c0.971-5.561,2.119-11.123,3.531-16.596l-17.037-4.414
		c-1.589,5.914-2.825,11.917-3.884,17.655L52.966,240.552z"/>
</g>
<g>
	<polygon style="fill:#FFA83D;" points="485.517,35.31 459.034,35.31 459.034,8.828 441.379,8.828 441.379,35.31 414.897,35.31 
		414.897,52.966 441.379,52.966 441.379,79.448 459.034,79.448 459.034,52.966 485.517,52.966 	"/>
	<path style="fill:#FFA83D;" d="M35.31,132.414L35.31,132.414C32.309,114.3,18.114,100.105,0,97.103l0,0
		c18.114-3.001,32.309-17.196,35.31-35.31l0,0c3.001,18.114,17.196,32.309,35.31,35.31l0,0
		C52.506,100.105,38.312,114.3,35.31,132.414z"/>
</g>
<g>
</g>
<g>
</g>
<g>
</g>
<g>
</g>
<g>
</g>
<g>
</g>
<g>
</g>
<g>
</g>
<g>
</g>
<g>
</g>
<g>
</g>
<g>
</g>
<g>
</g>
<g>
</g>
<g>
</g>
</svg>
