<?xml version="1.0" encoding="iso-8859-1"?>
<!-- Generator: Adobe Illustrator 19.0.0, SVG Export Plug-In . SVG Version: 6.00 Build 0)  -->
<svg version="1.1" id="Capa_1" xmlns="http://www.w3.org/2000/svg" xmlns:xlink="http://www.w3.org/1999/xlink" x="0px" y="0px"
	 viewBox="0 0 512 512" style="enable-background:new 0 0 512 512;" xml:space="preserve">
<g>
	<rect x="4.339" y="303.729" style="fill:#FDB62F;" width="208.271" height="52.068"/>
	<rect x="21.695" y="251.661" style="fill:#FDB62F;" width="208.271" height="52.068"/>
	<rect x="30.373" y="355.797" style="fill:#FDB62F;" width="208.271" height="52.068"/>
	<rect x="13.017" y="407.864" style="fill:#FDB62F;" width="208.271" height="52.068"/>
	<rect x="4.339" y="459.932" style="fill:#FDB62F;" width="208.271" height="52.068"/>
	<rect x="282.034" y="251.661" style="fill:#FDB62F;" width="208.271" height="52.068"/>
	<rect x="282.034" y="303.729" style="fill:#FDB62F;" width="208.271" height="52.068"/>
	<rect x="299.39" y="355.797" style="fill:#FDB62F;" width="208.271" height="52.068"/>
	<rect x="273.356" y="407.864" style="fill:#FDB62F;" width="208.271" height="52.068"/>
	<rect x="273.356" y="459.932" style="fill:#FDB62F;" width="208.271" height="52.068"/>
	<rect x="264.678" y="199.593" style="fill:#FDB62F;" width="208.271" height="52.068"/>
	<rect x="299.39" y="147.525" style="fill:#FDB62F;" width="208.271" height="52.068"/>
</g>
<g>
	<path style="fill:#FFA83D;" d="M212.61,303.729h-29.852c-30.633,28.984-74.804,44.171-113.595,52.068H212.61V303.729z"/>
	<path style="fill:#FFA83D;" d="M229.966,251.661h-29.852c-30.633,28.984-74.804,44.171-113.595,52.068h143.447V251.661z"/>
	<path style="fill:#FFA83D;" d="M238.644,355.797h-29.852c-30.633,28.984-74.804,44.171-113.595,52.068h143.447V355.797z"/>
	<path style="fill:#FFA83D;" d="M221.288,407.864h-29.852c-30.633,28.984-74.804,44.171-113.595,52.068h143.447V407.864z"/>
	<path style="fill:#FFA83D;" d="M212.61,459.932h-29.852C152.125,488.917,107.954,504.103,69.163,512H212.61V459.932z"/>
	<path style="fill:#FFA83D;" d="M507.661,147.525h-29.852c-30.633,28.984-74.804,44.171-113.595,52.068h143.447V147.525z"/>
	<path style="fill:#FFA83D;" d="M472.949,199.593h-29.852c-30.633,28.984-74.804,44.171-113.595,52.068h143.447V199.593z"/>
	<path style="fill:#FFA83D;" d="M490.305,251.661h-29.852c-30.633,28.984-74.804,44.171-113.595,52.068h143.447V251.661z"/>
	<path style="fill:#FFA83D;" d="M490.305,303.729h-29.852c-30.633,28.984-74.804,44.171-113.595,52.068h143.447V303.729z"/>
	<path style="fill:#FFA83D;" d="M507.661,355.797h-29.852c-30.633,28.984-74.804,44.171-113.595,52.068h143.447V355.797z"/>
	<path style="fill:#FFA83D;" d="M481.627,407.864h-29.852c-30.633,28.984-74.804,44.171-113.595,52.068h143.447V407.864z"/>
	<path style="fill:#FFA83D;" d="M481.627,459.932h-29.852C421.142,488.917,376.971,504.103,338.18,512h143.447V459.932z"/>
</g>
<circle style="fill:#FDB62F;" cx="125.831" cy="138.847" r="104.136"/>
<circle style="fill:#FFA83D;" cx="125.831" cy="138.847" r="78.102"/>
<g>
	<path style="fill:#FD7B2F;" d="M125.831,216.949v-17.356c33.549,0,60.746-27.197,60.746-60.746h17.356
		C203.932,181.986,168.969,216.949,125.831,216.949z"/>
	<path style="fill:#FD7B2F;" d="M65.085,138.847H47.729c0-43.138,34.964-78.102,78.102-78.102v17.356
		C92.281,78.102,65.085,105.298,65.085,138.847z"/>
</g>
<g>
	<path style="fill:#FDB62F;" d="M420.881,104.136L420.881,104.136c-2.951-17.807-16.905-31.761-34.712-34.712l0,0
		c17.807-2.951,31.761-16.905,34.712-34.712l0,0c2.951,17.807,16.905,31.761,34.712,34.712l0,0
		C437.786,72.374,423.832,86.328,420.881,104.136z"/>
	<polygon style="fill:#FDB62F;" points="290.712,26.034 264.678,26.034 264.678,0 247.322,0 247.322,26.034 221.288,26.034 
		221.288,43.39 247.322,43.39 247.322,69.424 264.678,69.424 264.678,43.39 290.712,43.39 	"/>
</g>
<g>
	<path style="fill:#FD7B2F;" d="M160.542,130.169v-3.298c-0.043-12.54-10.197-22.693-22.736-22.736h-3.298v-8.678h-17.356v8.678
		h-3.298c-12.557-0.174-22.875,9.867-23.049,22.415c-0.156,11.359,8.088,21.087,19.317,22.797l28.55,4.773
		c2.968,0.243,5.189,2.846,4.946,5.814c-0.243,2.968-2.846,5.189-5.814,4.946l0,0h-23.951c-2.968,0-5.38-2.412-5.38-5.38l0,0v-3.298
		H91.119v3.298c0.043,12.54,10.197,22.693,22.736,22.736h3.298v8.678h17.356v-8.678h3.298c12.557,0.174,22.875-9.867,23.049-22.415
		c0.156-11.359-8.088-21.087-19.317-22.797l-28.551-4.773c-2.968-0.243-5.189-2.846-4.946-5.814
		c0.243-2.968,2.846-5.189,5.814-4.946h23.951c2.968,0,5.38,2.412,5.38,5.38l0,0v3.298H160.542z"/>
	<rect x="47.729" y="277.695" style="fill:#FD7B2F;" width="17.356" height="26.034"/>
	<rect x="82.441" y="277.695" style="fill:#FD7B2F;" width="17.356" height="26.034"/>
	<rect x="117.153" y="277.695" style="fill:#FD7B2F;" width="17.356" height="26.034"/>
	<rect x="151.864" y="277.695" style="fill:#FD7B2F;" width="17.356" height="26.034"/>
	<rect x="186.576" y="277.695" style="fill:#FD7B2F;" width="17.356" height="26.034"/>
	<rect x="30.373" y="329.763" style="fill:#FD7B2F;" width="17.356" height="26.034"/>
	<rect x="65.085" y="329.763" style="fill:#FD7B2F;" width="17.356" height="26.034"/>
	<rect x="99.797" y="329.763" style="fill:#FD7B2F;" width="17.356" height="26.034"/>
	<rect x="134.508" y="329.763" style="fill:#FD7B2F;" width="17.356" height="26.034"/>
	<rect x="169.22" y="329.763" style="fill:#FD7B2F;" width="17.356" height="26.034"/>
	<rect x="56.407" y="381.831" style="fill:#FD7B2F;" width="17.356" height="26.034"/>
	<rect x="91.119" y="381.831" style="fill:#FD7B2F;" width="17.356" height="26.034"/>
	<rect x="125.831" y="381.831" style="fill:#FD7B2F;" width="17.356" height="26.034"/>
	<rect x="160.542" y="381.831" style="fill:#FD7B2F;" width="17.356" height="26.034"/>
	<rect x="195.254" y="381.831" style="fill:#FD7B2F;" width="17.356" height="26.034"/>
	<rect x="39.051" y="433.898" style="fill:#FD7B2F;" width="17.356" height="26.034"/>
	<rect x="73.763" y="433.898" style="fill:#FD7B2F;" width="17.356" height="26.034"/>
	<rect x="108.475" y="433.898" style="fill:#FD7B2F;" width="17.356" height="26.034"/>
	<rect x="143.186" y="433.898" style="fill:#FD7B2F;" width="17.356" height="26.034"/>
	<rect x="177.898" y="433.898" style="fill:#FD7B2F;" width="17.356" height="26.034"/>
	<rect x="30.373" y="485.966" style="fill:#FD7B2F;" width="17.356" height="26.034"/>
	<rect x="65.085" y="485.966" style="fill:#FD7B2F;" width="17.356" height="26.034"/>
	<rect x="99.797" y="485.966" style="fill:#FD7B2F;" width="17.356" height="26.034"/>
	<rect x="134.508" y="485.966" style="fill:#FD7B2F;" width="17.356" height="26.034"/>
	<rect x="169.22" y="485.966" style="fill:#FD7B2F;" width="17.356" height="26.034"/>
	<rect x="308.068" y="277.695" style="fill:#FD7B2F;" width="17.356" height="26.034"/>
	<rect x="342.78" y="277.695" style="fill:#FD7B2F;" width="17.356" height="26.034"/>
	<rect x="377.492" y="277.695" style="fill:#FD7B2F;" width="17.356" height="26.034"/>
	<rect x="412.203" y="277.695" style="fill:#FD7B2F;" width="17.356" height="26.034"/>
	<rect x="446.915" y="277.695" style="fill:#FD7B2F;" width="17.356" height="26.034"/>
	<rect x="308.068" y="329.763" style="fill:#FD7B2F;" width="17.356" height="26.034"/>
	<rect x="342.78" y="329.763" style="fill:#FD7B2F;" width="17.356" height="26.034"/>
	<rect x="377.492" y="329.763" style="fill:#FD7B2F;" width="17.356" height="26.034"/>
	<rect x="412.203" y="329.763" style="fill:#FD7B2F;" width="17.356" height="26.034"/>
	<rect x="446.915" y="329.763" style="fill:#FD7B2F;" width="17.356" height="26.034"/>
	<rect x="325.424" y="381.831" style="fill:#FD7B2F;" width="17.356" height="26.034"/>
	<rect x="360.136" y="381.831" style="fill:#FD7B2F;" width="17.356" height="26.034"/>
	<rect x="394.847" y="381.831" style="fill:#FD7B2F;" width="17.356" height="26.034"/>
	<rect x="429.559" y="381.831" style="fill:#FD7B2F;" width="17.356" height="26.034"/>
	<rect x="464.271" y="381.831" style="fill:#FD7B2F;" width="17.356" height="26.034"/>
	<rect x="299.39" y="433.898" style="fill:#FD7B2F;" width="17.356" height="26.034"/>
	<rect x="334.102" y="433.898" style="fill:#FD7B2F;" width="17.356" height="26.034"/>
	<rect x="368.814" y="433.898" style="fill:#FD7B2F;" width="17.356" height="26.034"/>
	<rect x="403.525" y="433.898" style="fill:#FD7B2F;" width="17.356" height="26.034"/>
	<rect x="438.237" y="433.898" style="fill:#FD7B2F;" width="17.356" height="26.034"/>
	<rect x="299.39" y="485.966" style="fill:#FD7B2F;" width="17.356" height="26.034"/>
	<rect x="334.102" y="485.966" style="fill:#FD7B2F;" width="17.356" height="26.034"/>
	<rect x="368.814" y="485.966" style="fill:#FD7B2F;" width="17.356" height="26.034"/>
	<rect x="403.525" y="485.966" style="fill:#FD7B2F;" width="17.356" height="26.034"/>
	<rect x="438.237" y="485.966" style="fill:#FD7B2F;" width="17.356" height="26.034"/>
	<rect x="290.712" y="225.627" style="fill:#FD7B2F;" width="17.356" height="26.034"/>
	<rect x="325.424" y="225.627" style="fill:#FD7B2F;" width="17.356" height="26.034"/>
	<rect x="360.136" y="225.627" style="fill:#FD7B2F;" width="17.356" height="26.034"/>
	<rect x="394.847" y="225.627" style="fill:#FD7B2F;" width="17.356" height="26.034"/>
	<rect x="429.559" y="225.627" style="fill:#FD7B2F;" width="17.356" height="26.034"/>
	<rect x="325.424" y="173.559" style="fill:#FD7B2F;" width="17.356" height="26.034"/>
	<rect x="360.136" y="173.559" style="fill:#FD7B2F;" width="17.356" height="26.034"/>
	<rect x="394.847" y="173.559" style="fill:#FD7B2F;" width="17.356" height="26.034"/>
	<rect x="429.559" y="173.559" style="fill:#FD7B2F;" width="17.356" height="26.034"/>
	<rect x="464.271" y="173.559" style="fill:#FD7B2F;" width="17.356" height="26.034"/>
</g>
<g>
</g>
<g>
</g>
<g>
</g>
<g>
</g>
<g>
</g>
<g>
</g>
<g>
</g>
<g>
</g>
<g>
</g>
<g>
</g>
<g>
</g>
<g>
</g>
<g>
</g>
<g>
</g>
<g>
</g>
</svg>
