<?xml version="1.0" encoding="iso-8859-1"?>
<!-- Generator: Adobe Illustrator 19.0.0, SVG Export Plug-In . SVG Version: 6.00 Build 0)  -->
<svg version="1.1" id="Capa_1" xmlns="http://www.w3.org/2000/svg" xmlns:xlink="http://www.w3.org/1999/xlink" x="0px" y="0px"
	 viewBox="0 0 512 512" style="enable-background:new 0 0 512 512;" xml:space="preserve">
<polygon style="fill:#DBDBDB;" points="316.746,286.373 325.424,312.407 256,477.288 186.576,312.407 195.254,286.373 "/>
<polygon style="fill:#875339;" points="299.39,485.966 264.678,347.119 282.034,312.407 282.034,295.051 229.966,295.051 
	229.966,312.407 247.322,347.119 212.61,485.966 "/>
<path style="fill:#6B402A;" d="M212.61,485.966h86.78l-17.356-68.035c-19.274,10.552-39.216,19.829-59.704,27.77L212.61,485.966z"/>
<g>
	<polygon style="fill:#EBEBEB;" points="186.576,312.407 203.932,355.797 238.644,303.729 203.932,260.339 	"/>
	<polygon style="fill:#EBEBEB;" points="325.424,312.407 308.068,355.797 273.356,303.729 308.068,260.339 	"/>
</g>
<path style="fill:#787D82;" d="M360.136,312.407h-34.712L256,477.288l-69.424-164.881h-34.712
	c-38.339,0-69.424,31.085-69.424,69.424V512h347.119V381.831C429.559,343.491,398.475,312.407,360.136,312.407z"/>
<g>
	<path style="fill:#F7BB8F;" d="M125.831,138.847c0,14.379,11.655,26.034,26.034,26.034h8.678v-52.068h-8.678
		C137.485,112.814,125.831,124.468,125.831,138.847z"/>
	<path style="fill:#F7BB8F;" d="M360.136,112.814h-8.678v52.068h8.678c14.379,0,26.034-11.655,26.034-26.034
		S374.515,112.814,360.136,112.814z"/>
</g>
<path style="fill:#FEC9A3;" d="M351.458,122.446c0-48.458-39.276-87.734-87.734-87.734c-0.061,0-0.113,0-0.174,0h-15.447
	c-41.134,0-76.739,28.577-85.652,68.729c-1.093,6.899-1.788,13.85-2.083,20.827c0,8.678,0,91.726,0,91.726
	c0,48.458,39.276,87.734,87.734,87.734l0,0h15.447c48.458,0.095,87.812-39.103,87.908-87.561c0-0.061,0-0.113,0-0.174v-1.822
	C351.458,205.841,351.458,122.446,351.458,122.446z"/>
<g>
	<circle style="fill:#875339;" cx="203.932" cy="138.847" r="17.356"/>
	<circle style="fill:#875339;" cx="308.068" cy="138.847" r="17.356"/>
</g>
<rect x="208.015" y="147.538" transform="matrix(-0.1241 0.9923 -0.9923 -0.1241 428.1501 -65.5082)" style="fill:#F0A789;" width="69.947" height="17.356"/>
<path style="fill:#ADADAD;" d="M195.254,60.746V21.782c-21.99,18.146-34.721,45.169-34.712,73.676v17.356
	C181.456,103.927,195.089,83.465,195.254,60.746z"/>
<g>
	<path style="fill:#B9B9B9;" d="M351.458,112.814l-10.153-4.079c-15.881-13.277-24.559-21.955-24.559-47.989H186.576
		c-19.17,0-34.712-15.542-34.712-34.712V0l43.39,8.678H299.39c28.759,0,52.068,23.309,52.068,52.068V112.814z"/>
	<path style="fill:#B9B9B9;" d="M327.593,194.734c-6.04,7.567-17,8.947-24.732,3.124c-27.77-20.827-65.953-20.827-93.722,0
		c-7.732,5.823-18.692,4.443-24.732-3.124l-23.864-27.509c0,23.951,0,48.77,0,48.77c0,48.458,39.276,87.734,87.734,87.734l0,0
		h15.447c48.458,0,87.734-39.276,87.734-87.734l0,0v-1.822c0-4.339,0-29.245,0-52.068L327.593,194.734z"/>
</g>
<path style="fill:#FEC9A3;" d="M245.239,234.305h-15.273v-17.356h15.273c11.412-0.017,22.667-2.664,32.889-7.723l7.81,15.447
	C273.304,231.007,259.367,234.305,245.239,234.305z"/>
<path style="fill:#71767A;" d="M267.976,448.911L256,477.288l-8.678-20.654c-53.378,18.12-108.735,29.774-164.881,34.712V512
	h347.119V381.831c-0.017-14.188-4.374-28.03-12.496-39.658C378.967,392.504,324.556,426.262,267.976,448.911z"/>
<rect x="308.068" y="416.542" style="fill:#616569;" width="78.102" height="17.356"/>
<g>
</g>
<g>
</g>
<g>
</g>
<g>
</g>
<g>
</g>
<g>
</g>
<g>
</g>
<g>
</g>
<g>
</g>
<g>
</g>
<g>
</g>
<g>
</g>
<g>
</g>
<g>
</g>
<g>
</g>
</svg>
