<?xml version="1.0" encoding="iso-8859-1"?>
<!-- Generator: Adobe Illustrator 19.0.0, SVG Export Plug-In . SVG Version: 6.00 Build 0)  -->
<svg version="1.1" id="Capa_1" xmlns="http://www.w3.org/2000/svg" xmlns:xlink="http://www.w3.org/1999/xlink" x="0px" y="0px"
	 viewBox="0 0 512 512" style="enable-background:new 0 0 512 512;" xml:space="preserve">
<polygon style="fill:#BDBDBD;" points="464.271,373.153 464.271,512 47.729,512 47.729,442.576 "/>
<rect x="47.729" y="468.61" style="fill:#ABABAB;" width="416.542" height="17.356"/>
<polygon style="fill:#D9D9D9;" points="464.271,34.712 464.271,373.153 394.847,442.576 47.729,442.576 47.729,34.712 "/>
<rect x="47.729" y="26.034" style="fill:#DE4C3C;" width="416.542" height="95.458"/>
<g>
	<path style="fill:#126099;" d="M125.831,69.424c-4.79,0-8.678-3.888-8.678-8.678V8.678c0-4.79,3.888-8.678,8.678-8.678
		s8.678,3.888,8.678,8.678v52.068C134.508,65.536,130.621,69.424,125.831,69.424z"/>
	<path style="fill:#126099;" d="M386.169,69.424c-4.79,0-8.678-3.888-8.678-8.678V8.678c0-4.79,3.888-8.678,8.678-8.678
		s8.678,3.888,8.678,8.678v52.068C394.847,65.536,390.96,69.424,386.169,69.424z"/>
	<path style="fill:#126099;" d="M212.61,69.424c-4.79,0-8.678-3.888-8.678-8.678V8.678c0-4.79,3.888-8.678,8.678-8.678
		s8.678,3.888,8.678,8.678v52.068C221.288,65.536,217.4,69.424,212.61,69.424z"/>
	<path style="fill:#126099;" d="M299.39,69.424c-4.79,0-8.678-3.888-8.678-8.678V8.678c0-4.79,3.888-8.678,8.678-8.678
		s8.678,3.888,8.678,8.678v52.068C308.068,65.536,304.18,69.424,299.39,69.424z"/>
</g>
<polyline style="fill:#FFFFFF;" points="464.271,373.153 394.847,373.153 394.847,442.576 464.271,373.153 "/>
<g>
	<rect x="290.712" y="182.237" style="fill:#4398D1;" width="69.424" height="69.424"/>
	<rect x="151.864" y="321.085" style="fill:#4398D1;" width="69.424" height="69.424"/>
</g>
<g>
	<path style="fill:#BDBDBD;" d="M429.559,173.559H151.864c-4.79,0-8.678,3.888-8.678,8.678v60.746H82.441
		c-4.79,0-8.678,3.888-8.678,8.678v138.847c0,4.79,3.888,8.678,8.678,8.678h208.271c4.79,0,8.678-3.888,8.678-8.678v-60.746h130.169
		c4.79,0,8.678-3.888,8.678-8.678V182.237C438.237,177.447,434.35,173.559,429.559,173.559z M420.881,242.983h-52.068v-52.068
		h52.068V242.983z M282.034,312.407h-52.068v-52.068h52.068V312.407z M160.542,312.407v-52.068h52.068v52.068H160.542z
		 M212.61,329.763v52.068h-52.068v-52.068H212.61z M229.966,242.983v-52.068h52.068v52.068H229.966z M299.39,190.915h52.068v52.068
		H299.39V190.915z M160.542,190.915h52.068v52.068h-52.068V190.915z M143.186,260.339v52.068H91.119v-52.068H143.186z
		 M91.119,329.763h52.068v52.068H91.119V329.763z M282.034,381.831h-52.068v-52.068h52.068V381.831z M299.39,260.339h52.068v52.068
		H299.39V260.339z M368.814,312.407v-52.068h52.068v52.068H368.814z"/>
	<rect x="316.746" y="347.119" style="fill:#BDBDBD;" width="26.034" height="26.034"/>
	<rect x="99.797" y="199.593" style="fill:#BDBDBD;" width="26.034" height="26.034"/>
</g>
<g>
</g>
<g>
</g>
<g>
</g>
<g>
</g>
<g>
</g>
<g>
</g>
<g>
</g>
<g>
</g>
<g>
</g>
<g>
</g>
<g>
</g>
<g>
</g>
<g>
</g>
<g>
</g>
<g>
</g>
</svg>
