<?xml version="1.0" encoding="iso-8859-1"?>
<!-- Generator: Adobe Illustrator 19.0.0, SVG Export Plug-In . SVG Version: 6.00 Build 0)  -->
<svg version="1.1" id="Capa_1" xmlns="http://www.w3.org/2000/svg" xmlns:xlink="http://www.w3.org/1999/xlink" x="0px" y="0px"
	 viewBox="0 0 512 512" style="enable-background:new 0 0 512 512;" xml:space="preserve">
<path style="fill:#5C3724;" d="M423.724,105.931H512V476.69c0,19.5-15.81,35.31-35.31,35.31H35.31C15.81,512,0,496.19,0,476.69
	V105.931h88.276"/>
<path style="fill:#543221;" d="M478.279,105.931C393.357,339.244,154.483,461.859,30.19,511.47c1.686,0.309,3.399,0.486,5.12,0.53
	H476.69c19.5,0,35.31-15.81,35.31-35.31V105.931H478.279z"/>
<path style="fill:#5C3724;" d="M291.31,0H220.69c-34.127,0-61.793,27.666-61.793,61.793v44.138h35.31V61.793
	c0-14.627,11.855-26.483,26.483-26.483h70.621c14.627,0,26.483,11.855,26.483,26.483v44.138h35.31V61.793
	C353.103,27.666,325.438,0,291.31,0z"/>
<path style="fill:#75462E;" d="M0,105.931V291.31c0,19.5,15.81,35.31,35.31,35.31H476.69c19.5,0,35.31-15.81,35.31-35.31V105.931H0z
	"/>
<path style="fill:#543221;" d="M476.69,326.621H35.31c-19.5,0-35.31-15.81-35.31-35.31v26.483c0,19.5,15.81,35.31,35.31,35.31
	H476.69c19.5,0,35.31-15.81,35.31-35.31V291.31C512,310.81,496.19,326.621,476.69,326.621z"/>
<path style="fill:#6B402A;" d="M466.185,105.931c-45.55,99.399-126.676,173.374-186.88,220.69H476.69
	c19.5,0,35.31-15.81,35.31-35.31V105.931H466.185z"/>
<path style="fill:#875339;" d="M353.103,256v220.69c0,19.5,15.81,35.31,35.31,35.31c19.5,0,35.31-15.81,35.31-35.31V256H353.103z"/>
<rect x="353.103" y="388.414" style="fill:#75462E;" width="70.621" height="17.655"/>
<rect x="353.103" y="88.276" style="fill:#875339;" width="70.621" height="105.666"/>
<path style="fill:#92989E;" d="M432.552,441.379h-8.828v-44.138c0-4.873-3.955-8.828-8.828-8.828h-52.966
	c-4.873,0-8.828,3.955-8.828,8.828v44.138h-8.828c-4.873,0-8.828-3.955-8.828-8.828v-35.31c0-14.627,11.855-26.483,26.483-26.483
	h52.966c14.627,0,26.483,11.855,26.483,26.483v35.31C441.379,437.425,437.425,441.379,432.552,441.379z"/>
<g>
	<path style="fill:#7D8287;" d="M335.448,432.552c0,4.873,3.955,8.828,8.828,8.828h8.828v-21.363
		c-6.268,2.119-12.27,3.972-17.655,5.561V432.552z"/>
	<path style="fill:#7D8287;" d="M432.552,377.997c-4.467,4.131-9.251,7.91-14.301,11.299c3.24,1.333,5.385,4.449,5.473,7.945v44.138
		h8.828c4.873,0,8.828-3.955,8.828-8.828v-35.31C441.238,389.879,438.042,382.905,432.552,377.997z"/>
</g>
<path style="fill:#92989E;" d="M388.414,353.103L388.414,353.103c4.873,0,8.828,3.955,8.828,8.828v44.138
	c0,4.873-3.955,8.828-8.828,8.828l0,0c-4.873,0-8.828-3.955-8.828-8.828v-44.138C379.586,357.058,383.541,353.103,388.414,353.103z"
	/>
<rect x="353.103" y="441.379" style="fill:#75462E;" width="70.621" height="17.655"/>
<g>
	<rect x="379.586" y="317.793" style="fill:#5C3724;" width="17.655" height="17.655"/>
	<rect x="379.586" y="282.483" style="fill:#5C3724;" width="17.655" height="17.655"/>
	<rect x="326.621" y="247.172" style="fill:#5C3724;" width="123.586" height="17.655"/>
	<rect x="326.621" y="185.379" style="fill:#5C3724;" width="123.586" height="17.655"/>
</g>
<g>
	<path style="fill:#543221;" d="M317.793,61.793v44.138h35.31V61.793c-0.035-15.272-5.729-29.987-15.978-41.313
		c-10.461,6.868-21.372,13.038-32.662,18.45C312.673,43.626,317.749,52.339,317.793,61.793z"/>
	<path style="fill:#543221;" d="M158.897,105.931h35.31V75.123c-12.447,2.648-24.364,4.767-35.31,6.444V105.931z"/>
</g>
<path style="fill:#875339;" d="M88.276,256v220.69c0,19.5,15.81,35.31,35.31,35.31s35.31-15.81,35.31-35.31V256H88.276z"/>
<rect x="88.276" y="388.414" style="fill:#75462E;" width="70.621" height="17.655"/>
<rect x="88.276" y="88.276" style="fill:#875339;" width="70.621" height="105.666"/>
<path style="fill:#92989E;" d="M167.724,441.379h-8.828v-44.138c0-4.873-3.955-8.828-8.828-8.828H97.103
	c-4.873,0-8.828,3.955-8.828,8.828v44.138h-8.828c-4.873,0-8.828-3.955-8.828-8.828v-35.31c0-14.627,11.855-26.483,26.483-26.483
	h52.966c14.627,0,26.483,11.855,26.483,26.483v35.31C176.552,437.425,172.597,441.379,167.724,441.379z"/>
<g>
	<path style="fill:#7D8287;" d="M70.621,432.552c0,4.873,3.955,8.828,8.828,8.828h8.828v-21.363
		c-6.268,2.119-12.27,3.972-17.655,5.561V432.552z"/>
	<path style="fill:#7D8287;" d="M167.724,377.997c-4.467,4.131-9.251,7.91-14.301,11.299c3.24,1.333,5.385,4.449,5.473,7.945v44.138
		h8.828c4.873,0,8.828-3.955,8.828-8.828v-35.31C176.41,389.879,173.215,382.905,167.724,377.997z"/>
</g>
<path style="fill:#92989E;" d="M123.586,353.103L123.586,353.103c4.873,0,8.828,3.955,8.828,8.828v44.138
	c0,4.873-3.955,8.828-8.828,8.828l0,0c-4.873,0-8.828-3.955-8.828-8.828v-44.138C114.759,357.058,118.713,353.103,123.586,353.103z"
	/>
<rect x="88.276" y="441.379" style="fill:#75462E;" width="70.621" height="17.655"/>
<g>
	<rect x="114.759" y="317.793" style="fill:#5C3724;" width="17.655" height="17.655"/>
	<rect x="114.759" y="282.483" style="fill:#5C3724;" width="17.655" height="17.655"/>
	<rect x="61.793" y="247.172" style="fill:#5C3724;" width="123.586" height="17.655"/>
	<rect x="61.793" y="185.379" style="fill:#5C3724;" width="123.586" height="17.655"/>
</g>
<g>
</g>
<g>
</g>
<g>
</g>
<g>
</g>
<g>
</g>
<g>
</g>
<g>
</g>
<g>
</g>
<g>
</g>
<g>
</g>
<g>
</g>
<g>
</g>
<g>
</g>
<g>
</g>
<g>
</g>
</svg>
